<svg width="100" height="100" viewBox="0 0 100 100" fill="none" xmlns="http://www.w3.org/2000/svg">
<rect width="100" height="100" fill="#4C74FF"/>
<path d="M90 69.3857L51.936 31.795C51.4201 31.2856 50.7243 31 49.9994 31C49.2744 31 48.5786 31.2856 48.0627 31.795L10 69.3857" stroke="#333333" stroke-width="4" stroke-miterlimit="10" stroke-linecap="round"/>
<path d="M77.1106 56.6553V40.136" stroke="#333333" stroke-width="4" stroke-miterlimit="10" stroke-linecap="round"/>
<path d="M48.5161 51.6271H43.96C43.5599 51.6271 43.2356 51.9515 43.2356 52.3516V56.9076C43.2356 57.3077 43.5599 57.6321 43.96 57.6321H48.5161C48.9162 57.6321 49.2405 57.3077 49.2405 56.9076V52.3516C49.2405 51.9515 48.9162 51.6271 48.5161 51.6271Z" fill="white"/>
<path d="M56.0403 51.6271H51.4842C51.0841 51.6271 50.7598 51.9515 50.7598 52.3516V56.9076C50.7598 57.3077 51.0841 57.6321 51.4842 57.6321H56.0403C56.4403 57.6321 56.7647 57.3077 56.7647 56.9076V52.3516C56.7647 51.9515 56.4403 51.6271 56.0403 51.6271Z" fill="white"/>
<path d="M56.0403 59.1503H51.4842C51.0841 59.1503 50.7598 59.4747 50.7598 59.8748V64.4308C50.7598 64.8309 51.0841 65.1552 51.4842 65.1552H56.0403C56.4403 65.1552 56.7647 64.8309 56.7647 64.4308V59.8748C56.7647 59.4747 56.4403 59.1503 56.0403 59.1503Z" fill="white"/>
<path d="M48.5161 59.1503H43.96C43.5599 59.1503 43.2356 59.4747 43.2356 59.8748V64.4308C43.2356 64.8309 43.5599 65.1552 43.96 65.1552H48.5161C48.9162 65.1552 49.2405 64.8309 49.2405 64.4308V59.8748C49.2405 59.4747 48.9162 59.1503 48.5161 59.1503Z" fill="white"/>
</svg>
