<svg width="84" height="68" viewBox="0 0 84 68" fill="none" xmlns="http://www.w3.org/2000/svg">
<path d="M16.208 51.112C16.208 51.48 16.184 51.848 16.136 52.216H7.232C7.28 52.952 7.48 53.504 7.832 53.872C8.2 54.224 8.664 54.4 9.224 54.4C10.008 54.4 10.568 54.048 10.904 53.344H15.92C15.712 54.272 15.304 55.104 14.696 55.84C14.104 56.56 13.352 57.128 12.44 57.544C11.528 57.96 10.52 58.168 9.416 58.168C8.088 58.168 6.904 57.888 5.864 57.328C4.84 56.768 4.032 55.968 3.44 54.928C2.864 53.888 2.576 52.664 2.576 51.256C2.576 49.848 2.864 48.632 3.44 47.608C4.016 46.568 4.816 45.768 5.84 45.208C6.88 44.648 8.072 44.368 9.416 44.368C10.744 44.368 11.92 44.64 12.944 45.184C13.968 45.728 14.768 46.512 15.344 47.536C15.92 48.544 16.208 49.736 16.208 51.112ZM11.408 49.936C11.408 49.36 11.216 48.912 10.832 48.592C10.448 48.256 9.968 48.088 9.392 48.088C8.816 48.088 8.344 48.248 7.976 48.568C7.608 48.872 7.368 49.328 7.256 49.936H11.408ZM35.7251 44.416C37.4211 44.416 38.7491 44.928 39.7091 45.952C40.6851 46.976 41.1731 48.376 41.1731 50.152V58H36.4691V50.776C36.4691 50.056 36.2691 49.496 35.8691 49.096C35.4691 48.696 34.9251 48.496 34.2371 48.496C33.5491 48.496 33.0051 48.696 32.6051 49.096C32.2051 49.496 32.0051 50.056 32.0051 50.776V58H27.3011V50.776C27.3011 50.056 27.1011 49.496 26.7011 49.096C26.3171 48.696 25.7811 48.496 25.0931 48.496C24.3891 48.496 23.8371 48.696 23.4371 49.096C23.0371 49.496 22.8371 50.056 22.8371 50.776V58H18.1331V44.536H22.8371V46.312C23.2531 45.736 23.7891 45.28 24.4451 44.944C25.1171 44.592 25.8851 44.416 26.7491 44.416C27.7411 44.416 28.6211 44.632 29.3891 45.064C30.1731 45.496 30.7891 46.104 31.2371 46.888C31.7171 46.152 32.3491 45.56 33.1331 45.112C33.9171 44.648 34.7811 44.416 35.7251 44.416Z" fill="#333333"/>
<path d="M48.4543 54.4H53.7103V58H43.7503V41.08H48.4543V54.4ZM54.7713 51.256C54.7713 49.864 55.0193 48.648 55.5153 47.608C56.0273 46.568 56.7153 45.768 57.5793 45.208C58.4593 44.648 59.4353 44.368 60.5073 44.368C61.4353 44.368 62.2353 44.552 62.9073 44.92C63.5793 45.288 64.0993 45.784 64.4673 46.408V44.536H69.1713V58H64.4673V56.128C64.0993 56.752 63.5713 57.248 62.8833 57.616C62.2113 57.984 61.4193 58.168 60.5073 58.168C59.4353 58.168 58.4593 57.888 57.5793 57.328C56.7153 56.768 56.0273 55.968 55.5153 54.928C55.0193 53.872 54.7713 52.648 54.7713 51.256ZM64.4673 51.256C64.4673 50.392 64.2273 49.712 63.7473 49.216C63.2833 48.72 62.7073 48.472 62.0193 48.472C61.3153 48.472 60.7313 48.72 60.2673 49.216C59.8033 49.696 59.5713 50.376 59.5713 51.256C59.5713 52.12 59.8033 52.808 60.2673 53.32C60.7313 53.816 61.3153 54.064 62.0193 54.064C62.7073 54.064 63.2833 53.816 63.7473 53.32C64.2273 52.824 64.4673 52.136 64.4673 51.256ZM76.5558 46.912C77.0838 46.144 77.7238 45.536 78.4758 45.088C79.2278 44.64 80.0358 44.416 80.8998 44.416V49.432H79.5798C78.5558 49.432 77.7958 49.632 77.2998 50.032C76.8038 50.432 76.5558 51.128 76.5558 52.12V58H71.8518V44.536H76.5558V46.912Z" fill="white"/>
<path d="M82 40.3857L43.936 2.79501C43.4201 2.28563 42.7243 2 41.9994 2C41.2744 2 40.5786 2.28563 40.0627 2.79501L2 40.3857" stroke="#333333" stroke-width="4" stroke-miterlimit="10" stroke-linecap="round"/>
<path d="M69.1104 27.6552V11.136" stroke="#333333" stroke-width="4" stroke-miterlimit="10" stroke-linecap="round"/>
<path d="M40.5158 22.6272H35.9598C35.5597 22.6272 35.2354 22.9515 35.2354 23.3516V27.9077C35.2354 28.3078 35.5597 28.6321 35.9598 28.6321H40.5158C40.9159 28.6321 41.2403 28.3078 41.2403 27.9077V23.3516C41.2403 22.9515 40.9159 22.6272 40.5158 22.6272Z" fill="white"/>
<path d="M48.0403 22.6272H43.4842C43.0841 22.6272 42.7598 22.9515 42.7598 23.3516V27.9077C42.7598 28.3078 43.0841 28.6321 43.4842 28.6321H48.0403C48.4403 28.6321 48.7647 28.3078 48.7647 27.9077V23.3516C48.7647 22.9515 48.4403 22.6272 48.0403 22.6272Z" fill="white"/>
<path d="M48.0403 30.1503H43.4842C43.0841 30.1503 42.7598 30.4747 42.7598 30.8748V35.4308C42.7598 35.8309 43.0841 36.1552 43.4842 36.1552H48.0403C48.4403 36.1552 48.7647 35.8309 48.7647 35.4308V30.8748C48.7647 30.4747 48.4403 30.1503 48.0403 30.1503Z" fill="white"/>
<path d="M40.5158 30.1503H35.9598C35.5597 30.1503 35.2354 30.4747 35.2354 30.8748V35.4308C35.2354 35.8309 35.5597 36.1552 35.9598 36.1552H40.5158C40.9159 36.1552 41.2403 35.8309 41.2403 35.4308V30.8748C41.2403 30.4747 40.9159 30.1503 40.5158 30.1503Z" fill="white"/>
</svg>
