<svg width="21" height="24" viewBox="0 0 21 24" fill="none" xmlns="http://www.w3.org/2000/svg">
<g clip-path="url(#clip0_2_263)">
<path d="M10.1468 1.7093L9.81531 2.0407C9.59566 2.26036 9.59566 2.61652 9.81531 2.83622L18.1822 11.2031L0.562506 11.2031C0.251865 11.2031 5.72205e-06 11.455 5.72205e-06 11.7656V12.2344C5.72205e-06 12.545 0.251865 12.7969 0.562506 12.7969L18.1822 12.7969L9.81531 21.1638C9.59566 21.3834 9.59566 21.7396 9.81531 21.9593L10.1468 22.2907C10.3664 22.5104 10.7226 22.5104 10.9422 22.2907L20.8353 12.3977C21.0549 12.1781 21.0549 11.8219 20.8353 11.6022L10.9422 1.70925C10.7226 1.48959 10.3664 1.48959 10.1468 1.7093Z" fill="#8000FF"/>
</g>
<defs>
<clipPath id="clip0_2_263">
<rect width="21" height="24" fill="white" transform="translate(21 24) rotate(180)"/>
</clipPath>
</defs>
</svg>
