<svg width="16" height="16" viewBox="0 0 16 16" fill="none" xmlns="http://www.w3.org/2000/svg">
<g clip-path="url(#clip0_2_117)">
<path d="M15.2847 8.03854H2.16228V2.23035C2.16234 2.05782 2.21354 1.88918 2.30941 1.74574C2.40528 1.60229 2.54152 1.49049 2.70092 1.42445C2.86031 1.35842 3.0357 1.34111 3.20493 1.37472C3.37416 1.40834 3.52962 1.49136 3.65168 1.6133L4.40443 2.36605C4.18768 2.70659 4.07205 3.10166 4.071 3.50532C4.071 4.11074 4.33345 4.64489 4.73726 5.03409L4.38654 5.38422C4.34182 5.42896 4.31671 5.48962 4.31671 5.55287C4.31671 5.61612 4.34182 5.67679 4.38654 5.72153L4.72384 6.05913C4.746 6.08132 4.77231 6.09891 4.80128 6.11092C4.83024 6.12293 4.86129 6.12911 4.89264 6.12911C4.924 6.12911 4.95505 6.12293 4.98401 6.11092C5.01298 6.09891 5.03929 6.08132 5.06145 6.05913L8.77302 2.34846C8.7952 2.3263 8.8128 2.29998 8.82481 2.27102C8.83681 2.24205 8.84299 2.21101 8.84299 2.17965C8.84299 2.1483 8.83681 2.11725 8.82481 2.08829C8.8128 2.05932 8.7952 2.03301 8.77302 2.01085L8.43541 1.67354C8.39067 1.62883 8.33001 1.60372 8.26676 1.60372C8.20351 1.60372 8.14284 1.62883 8.09811 1.67354L7.74708 2.02427C7.35788 1.62046 6.82373 1.35801 6.21831 1.35801C5.81464 1.35898 5.41955 1.47461 5.07904 1.69144L4.32629 0.940474C4.07099 0.68497 3.74565 0.510903 3.39143 0.440281C3.0372 0.369659 2.66999 0.405654 2.33622 0.543714C2.00245 0.681774 1.71711 0.915701 1.51627 1.21592C1.31544 1.51613 1.20813 1.86916 1.20792 2.23035V8.03854H0.492146C0.428867 8.03854 0.368181 8.06368 0.323437 8.10842C0.278692 8.15316 0.253555 8.21385 0.253555 8.27713L0.253555 8.75431C0.253555 8.81759 0.278692 8.87827 0.323437 8.92302C0.368181 8.96776 0.428867 8.9929 0.492146 8.9929H1.20792V11.856C1.20792 13.1008 2.00719 14.1494 3.11664 14.5437V15.4348C3.11664 15.4981 3.14178 15.5588 3.18652 15.6035C3.23126 15.6483 3.29195 15.6734 3.35523 15.6734H3.83241C3.89569 15.6734 3.95637 15.6483 4.00112 15.6035C4.04586 15.5588 4.071 15.4981 4.071 15.4348V14.7191H11.7059V15.4348C11.7059 15.4981 11.731 15.5588 11.7758 15.6035C11.8205 15.6483 11.8812 15.6734 11.9445 15.6734H12.4217C12.4849 15.6734 12.5456 15.6483 12.5904 15.6035C12.6351 15.5588 12.6602 15.4981 12.6602 15.4348V14.5437C13.7697 14.1494 14.569 13.1008 14.569 11.856V8.9929H15.2847C15.348 8.9929 15.4087 8.96776 15.4535 8.92302C15.4982 8.87827 15.5233 8.81759 15.5233 8.75431V8.27713C15.5233 8.21385 15.4982 8.15316 15.4535 8.10842C15.4087 8.06368 15.348 8.03854 15.2847 8.03854V8.03854ZM7.07455 2.6971L5.41009 4.36156C5.28951 4.25379 5.19295 4.12187 5.12667 3.97435C5.06039 3.82684 5.02587 3.66704 5.02536 3.50532C5.02536 3.18893 5.15105 2.8855 5.37477 2.66178C5.59849 2.43805 5.90192 2.31237 6.21831 2.31237C6.38003 2.31288 6.53983 2.3474 6.68735 2.41368C6.83486 2.47996 6.96678 2.57652 7.07455 2.6971V2.6971ZM13.6146 11.856C13.6141 12.362 13.4128 12.8472 13.0549 13.205C12.6971 13.5629 12.2119 13.7642 11.7059 13.7647H4.071C3.56494 13.7642 3.07977 13.5629 2.72194 13.205C2.3641 12.8472 2.16283 12.362 2.16228 11.856V8.9929H13.6146V11.856Z" fill="#999999"/>
</g>
<defs>
<clipPath id="clip0_2_117">
<rect width="15.2698" height="15.2698" fill="white" transform="translate(0.25354 0.403687)"/>
</clipPath>
</defs>
</svg>
