<svg width="17" height="16" viewBox="0 0 17 16" fill="none" xmlns="http://www.w3.org/2000/svg">
<g clip-path="url(#clip0_40_326)">
<path d="M4.32211 9.40366C5.42486 9.40366 6.32211 8.50641 6.32211 7.40366C6.32211 6.30091 5.42486 5.40366 4.32211 5.40366C3.21936 5.40366 2.32211 6.30091 2.32211 7.40366C2.32211 8.50641 3.21936 9.40366 4.32211 9.40366ZM4.32211 6.20366C4.98386 6.20366 5.52211 6.74191 5.52211 7.40366C5.52211 8.06541 4.98386 8.60366 4.32211 8.60366C3.66036 8.60366 3.12211 8.06541 3.12211 7.40366C3.12211 6.74191 3.66036 6.20366 4.32211 6.20366ZM13.9221 5.40366H7.52211C7.30111 5.40366 7.12211 5.58266 7.12211 5.80366V10.2037H1.52211V3.20366C1.52211 3.09316 1.43261 3.00366 1.32211 3.00366H0.922107C0.811607 3.00366 0.722107 3.09316 0.722107 3.20366V12.4037C0.722107 12.5142 0.811607 12.6037 0.922107 12.6037H1.32211C1.43261 12.6037 1.52211 12.5142 1.52211 12.4037V11.0037H15.9221V12.4037C15.9221 12.5142 16.0116 12.6037 16.1221 12.6037H16.5221C16.6326 12.6037 16.7221 12.5142 16.7221 12.4037V8.20366C16.7221 6.65716 15.4686 5.40366 13.9221 5.40366ZM15.9221 10.2037H7.92211V6.20366H13.9221C15.0249 6.20366 15.9221 7.10091 15.9221 8.20366V10.2037Z" fill="#999999"/>
</g>
<defs>
<clipPath id="clip0_40_326">
<rect width="16" height="12.8" fill="white" transform="translate(0.722107 1.40369)"/>
</clipPath>
</defs>
</svg>
