<svg width="18" height="18" viewBox="0 0 18 18" fill="none" xmlns="http://www.w3.org/2000/svg">
<g clip-path="url(#clip0_140_7)">
<path d="M3.8125 15.75H13.9375C14.2483 15.75 14.5 15.4983 14.5 15.1875V8.4375C14.5 8.12672 14.2483 7.875 13.9375 7.875H3.8125C3.50172 7.875 3.25 8.12672 3.25 8.4375V15.1875C3.25 15.4983 3.50172 15.75 3.8125 15.75ZM11.125 12.375V9H13.375V14.625H11.125V12.375ZM7.75 9H10V11.25H7.75V9ZM7.75 12.375H10V14.625H7.75V12.375ZM4.375 9H6.625V11.25H4.375V9ZM4.375 12.375H6.625V14.625H4.375V12.375ZM15.0625 0H2.6875C1.7875 0 1 0.7875 1 1.6875V16.3125C1 17.2125 1.7875 18 2.6875 18H15.0625C15.9625 18 16.75 17.2125 16.75 16.3125V1.6875C16.75 0.7875 15.9625 0 15.0625 0ZM15.625 16.3125C15.625 16.5913 15.3413 16.875 15.0625 16.875H2.6875C2.40871 16.875 2.125 16.5913 2.125 16.3125V6.75H15.625V16.3125ZM15.625 5.625H2.125V1.6875C2.125 1.40871 2.40871 1.125 2.6875 1.125H15.0625C15.3413 1.125 15.625 1.40871 15.625 1.6875V5.625Z" fill="white"/>
</g>
<defs>
<clipPath id="clip0_140_7">
<rect width="15.75" height="18" fill="white" transform="translate(1)"/>
</clipPath>
</defs>
</svg>
