<svg width="48" height="48" viewBox="0 0 48 48" fill="none" xmlns="http://www.w3.org/2000/svg">
<path d="M39.75 33H41.25C41.6625 33 42 32.6625 42 32.25V9.75C42 9.3375 41.6625 9 41.25 9H39.75C39.3375 9 39 9.3375 39 9.75V32.25C39 32.6625 39.3375 33 39.75 33ZM30.75 33H32.25C32.6625 33 33 32.6625 33 32.25V18.75C33 18.3375 32.6625 18 32.25 18H30.75C30.3375 18 30 18.3375 30 18.75V32.25C30 32.6625 30.3375 33 30.75 33ZM12.75 33H14.25C14.6625 33 15 32.6625 15 32.25V24.75C15 24.3375 14.6625 24 14.25 24H12.75C12.3375 24 12 24.3375 12 24.75V32.25C12 32.6625 12.3375 33 12.75 33ZM21.75 33H23.25C23.6625 33 24 32.6625 24 32.25V12.75C24 12.3375 23.6625 12 23.25 12H21.75C21.3375 12 21 12.3375 21 12.75V32.25C21 32.6625 21.3375 33 21.75 33ZM47.25 39H3V6.75C3 6.33562 2.66438 6 2.25 6H0.75C0.335625 6 0 6.33562 0 6.75V40.5C0 41.3288 0.67125 42 1.5 42H47.25C47.6644 42 48 41.6644 48 41.25V39.75C48 39.3356 47.6644 39 47.25 39Z" fill="url(#paint0_linear_50_4732)"/>
<defs>
<linearGradient id="paint0_linear_50_4732" x1="0" y1="6" x2="51.8091" y2="12.746" gradientUnits="userSpaceOnUse">
<stop stop-color="#FFA500"/>
<stop offset="0.510417" stop-color="#C3080F"/>
<stop offset="1" stop-color="#C30B5F"/>
</linearGradient>
</defs>
</svg>
