<svg width="48" height="48" viewBox="0 0 48 48" fill="none" xmlns="http://www.w3.org/2000/svg">
<path fill-rule="evenodd" clip-rule="evenodd" d="M6 0C2.68629 0 0 2.68629 0 6V42C0 45.3137 2.68629 48 6 48H42C45.3137 48 48 45.3137 48 42V6C48 2.68629 45.3137 0 42 0H6ZM30.2513 21.1566L29.5847 25.5H26.0836V36H21.3881V25.5H17.573V21.1566H21.3881V17.8463C21.3881 14.0803 23.6316 12 27.0638 12C28.7077 12 30.427 12.2934 30.427 12.2934V15.9914H28.5324C26.6658 15.9914 26.0836 17.1497 26.0836 18.338V21.1566H30.2513Z" fill="#8000FF"/>
</svg>
