<svg width="48" height="48" viewBox="0 0 48 48" fill="none" xmlns="http://www.w3.org/2000/svg">
<g clip-path="url(#clip0_149_12)">
<path d="M40.6781 9.1781L32.8125 1.31248C31.9688 0.468726 30.825 -0.00939941 29.6344 -0.00939941H10.5C8.01562 -2.44124e-05 6 2.0156 6 4.49998V43.5C6 45.9844 8.01562 48 10.5 48H37.5C39.9844 48 42 45.9844 42 43.5V12.3656C42 11.175 41.5219 10.0219 40.6781 9.1781ZM38.5594 11.3062C38.7562 11.5031 38.8875 11.7375 38.9531 12H30V3.04685C30.2625 3.11248 30.4969 3.24373 30.6937 3.4406L38.5594 11.3062ZM37.5 45H10.5C9.675 45 9 44.325 9 43.5V4.49998C9 3.67498 9.675 2.99998 10.5 2.99998H27V12.75C27 13.9969 28.0031 15 29.25 15H39V43.5C39 44.325 38.325 45 37.5 45ZM33 22.125V22.875C33 23.4937 32.4937 24 31.875 24H16.125C15.5063 24 15 23.4937 15 22.875V22.125C15 21.5062 15.5063 21 16.125 21H31.875C32.4937 21 33 21.5062 33 22.125ZM33 28.125V28.875C33 29.4937 32.4937 30 31.875 30H16.125C15.5063 30 15 29.4937 15 28.875V28.125C15 27.5062 15.5063 27 16.125 27H31.875C32.4937 27 33 27.5062 33 28.125ZM33 34.125V34.875C33 35.4937 32.4937 36 31.875 36H16.125C15.5063 36 15 35.4937 15 34.875V34.125C15 33.5062 15.5063 33 16.125 33H31.875C32.4937 33 33 33.5062 33 34.125Z" fill="white"/>
</g>
<defs>
<clipPath id="clip0_149_12">
<rect width="36" height="48" fill="white" transform="translate(6)"/>
</clipPath>
</defs>
</svg>
