<svg width="17" height="16" viewBox="0 0 17 16" fill="none" xmlns="http://www.w3.org/2000/svg">
<g clip-path="url(#clip0_40_328)">
<path d="M6.96755 11.0037C6.88844 11.0037 6.81111 11.0272 6.74533 11.0711C6.67955 11.1151 6.62828 11.1776 6.598 11.2506C6.56773 11.3237 6.55981 11.4042 6.57524 11.4818C6.59067 11.5593 6.62877 11.6306 6.68471 11.6866C6.74065 11.7425 6.81193 11.7806 6.88952 11.796C6.96711 11.8115 7.04754 11.8035 7.12063 11.7733C7.19372 11.743 7.25619 11.6917 7.30014 11.6259C7.34409 11.5602 7.36755 11.4828 7.36755 11.4037C7.36755 11.2976 7.32541 11.1959 7.2504 11.1209C7.17538 11.0459 7.07364 11.0037 6.96755 11.0037ZM10.9676 11.0037C10.8884 11.0037 10.8111 11.0272 10.7453 11.0711C10.6796 11.1151 10.6283 11.1776 10.598 11.2506C10.5677 11.3237 10.5598 11.4042 10.5752 11.4818C10.5907 11.5593 10.6288 11.6306 10.6847 11.6866C10.7407 11.7425 10.8119 11.7806 10.8895 11.796C10.9671 11.8115 11.0475 11.8035 11.1206 11.7733C11.1937 11.743 11.2562 11.6917 11.3001 11.6259C11.3441 11.5602 11.3676 11.4828 11.3676 11.4037C11.3676 11.2976 11.3254 11.1959 11.2504 11.1209C11.1754 11.0459 11.0736 11.0037 10.9676 11.0037ZM16.2323 4.36196L9.43231 1.49746C9.28516 1.43565 9.12716 1.40381 8.96756 1.40381C8.80795 1.40381 8.64995 1.43565 8.50281 1.49746L1.7028 4.36196C1.48482 4.45296 1.29867 4.60646 1.16782 4.80311C1.03698 4.99976 0.967286 5.23076 0.967545 5.46696V14.0037C0.967545 14.0568 0.988617 14.1076 1.02612 14.1451C1.06363 14.1826 1.1145 14.2037 1.16755 14.2037H1.56755C1.62059 14.2037 1.67146 14.1826 1.70897 14.1451C1.74648 14.1076 1.76755 14.0568 1.76755 14.0037V5.46696C1.76737 5.38801 1.79056 5.31076 1.83421 5.24497C1.87785 5.17917 1.93999 5.12776 2.0128 5.09721L8.81281 2.23221C8.86172 2.2113 8.91436 2.20053 8.96756 2.20053C9.02075 2.20053 9.07339 2.2113 9.12231 2.23221L15.9223 5.09721C15.9953 5.12751 16.0576 5.17886 16.1013 5.24471C16.145 5.31057 16.168 5.38794 16.1676 5.46696V14.0037C16.1676 14.0568 16.1886 14.1076 16.2261 14.1451C16.2637 14.1826 16.3145 14.2037 16.3676 14.2037H16.7676C16.8206 14.2037 16.8715 14.1826 16.909 14.1451C16.9465 14.1076 16.9676 14.0568 16.9676 14.0037V5.46696C16.9678 5.23076 16.8981 4.99976 16.7673 4.80311C16.6364 4.60646 16.4503 4.45296 16.2323 4.36196V4.36196ZM13.7676 6.20371H4.16755C3.95538 6.20371 3.75189 6.288 3.60186 6.43803C3.45183 6.58806 3.36755 6.79154 3.36755 7.00371V14.0037C3.36755 14.0568 3.38862 14.1076 3.42613 14.1451C3.46363 14.1826 3.51451 14.2037 3.56755 14.2037H3.96755C4.02059 14.2037 4.07146 14.1826 4.10897 14.1451C4.14648 14.1076 4.16755 14.0568 4.16755 14.0037V7.00371H13.7676V14.0037C13.7676 14.0568 13.7886 14.1076 13.8261 14.1451C13.8636 14.1826 13.9145 14.2037 13.9676 14.2037H14.3676C14.4206 14.2037 14.4715 14.1826 14.509 14.1451C14.5465 14.1076 14.5676 14.0568 14.5676 14.0037V7.00371C14.5676 6.79154 14.4833 6.58806 14.3332 6.43803C14.1832 6.288 13.9797 6.20371 13.7676 6.20371ZM12.0656 9.84597L11.8301 8.90222C11.7517 8.58842 11.5706 8.30984 11.3156 8.1108C11.0607 7.91175 10.7465 7.80366 10.4231 7.80371H7.51205C7.18841 7.80374 6.87407 7.91205 6.6191 8.11139C6.36413 8.31073 6.18317 8.58964 6.10505 8.90372L5.86955 9.84697C5.61219 9.91241 5.3839 10.0616 5.2206 10.271C5.05731 10.4804 4.96829 10.7382 4.96755 11.0037V12.2037C4.96755 12.4159 5.05184 12.6194 5.20187 12.7694C5.3519 12.9194 5.55538 13.0037 5.76755 13.0037V13.8037C5.76755 13.9098 5.8097 14.0115 5.88471 14.0866C5.95972 14.1616 6.06147 14.2037 6.16755 14.2037H6.56755C6.67364 14.2037 6.77538 14.1616 6.8504 14.0866C6.92541 14.0115 6.96755 13.9098 6.96755 13.8037V13.0037H10.9676V13.8037C10.9676 13.9098 11.0097 14.0115 11.0847 14.0866C11.1597 14.1616 11.2615 14.2037 11.3676 14.2037H11.7676C11.8736 14.2037 11.9754 14.1616 12.0504 14.0866C12.1254 14.0115 12.1676 13.9098 12.1676 13.8037V13.0037C12.3797 13.0037 12.5832 12.9194 12.7332 12.7694C12.8833 12.6194 12.9676 12.4159 12.9676 12.2037V11.0037C12.967 10.738 12.8781 10.48 12.7148 10.2704C12.5515 10.0608 12.3231 9.91145 12.0656 9.84597V9.84597ZM6.88155 9.09597C6.91673 8.95537 6.99788 8.83056 7.11212 8.74137C7.22636 8.65218 7.36712 8.60373 7.51205 8.60372H10.4231C10.568 8.60373 10.7088 8.65218 10.823 8.74137C10.9372 8.83056 11.0184 8.95537 11.0536 9.09597L11.2303 9.80372H6.7053L6.88155 9.09597ZM12.1676 12.2037H5.76755V11.0037C5.76755 10.8976 5.8097 10.7959 5.88471 10.7209C5.95972 10.6459 6.06147 10.6037 6.16755 10.6037H11.7676C11.8736 10.6037 11.9754 10.6459 12.0504 10.7209C12.1254 10.7959 12.1676 10.8976 12.1676 11.0037V12.2037Z" fill="#999999"/>
</g>
<defs>
<clipPath id="clip0_40_328">
<rect width="16" height="12.8" fill="white" transform="translate(0.967545 1.40369)"/>
</clipPath>
</defs>
</svg>
