<svg width="62" height="62" viewBox="0 0 62 62" fill="none" xmlns="http://www.w3.org/2000/svg">
<g filter="url(#filter0_d_146_10)">
<path d="M57.7799 21.8363L56.7167 20.7759C56.4233 20.4834 55.947 20.4834 55.6536 20.7759L54.0589 22.3669L49.092 17.4113C49.6208 15.4134 49.1258 13.2019 47.5555 11.6353L43.303 7.39313C40.3677 4.46438 36.5202 3 32.6727 3C28.8251 3 24.9767 4.46438 22.0414 7.39313L28.4783 13.815C28.0639 15.3816 28.302 17.0681 29.172 18.4838L6.01296 40.0556C3.39264 42.4969 3.32139 46.6191 5.85639 49.1484C7.09577 50.385 8.71764 51 10.3367 51C12.0289 51 13.7201 50.3278 14.9698 48.9919L36.8258 25.635C38.0295 26.1094 39.342 26.2256 40.587 25.8975L45.5539 30.8531L43.9592 32.4441C43.8895 32.5136 43.8341 32.5962 43.7963 32.6872C43.7586 32.7782 43.7391 32.8757 43.7391 32.9742C43.7391 33.0727 43.7586 33.1703 43.7963 33.2612C43.8341 33.3522 43.8895 33.4348 43.9592 33.5044L45.0223 34.5647C45.3158 34.8572 45.792 34.8572 46.0855 34.5647L57.7799 22.8975C57.8496 22.8279 57.905 22.7452 57.9427 22.6541C57.9805 22.5631 57.9999 22.4654 57.9999 22.3669C57.9999 22.2683 57.9805 22.1707 57.9427 22.0796C57.905 21.9886 57.8496 21.9059 57.7799 21.8363ZM12.7723 46.9444C12.1358 47.625 11.2705 48 10.3367 48C9.44796 48 8.61171 47.6541 7.98264 47.0269C7.33858 46.3838 6.99171 45.5297 7.00764 44.6203C7.02358 43.7109 7.39858 42.8691 8.06514 42.2484L31.1623 20.7356L34.3358 23.9016L12.7723 46.9444ZM47.6802 28.7306L42.7133 23.7759L41.4908 22.5563L39.8192 22.9969C38.7598 23.2763 37.678 22.9941 36.9252 22.2431L32.1411 17.4703C31.3883 16.7194 31.1061 15.6394 31.3855 14.5828L31.827 12.915L30.6045 11.6953L26.5602 7.65938C28.392 6.5775 30.4883 6 32.6727 6C35.8855 6 38.9052 7.24875 41.1777 9.51469L45.4302 13.7578C46.183 14.5087 46.4652 15.5887 46.1858 16.6453L45.7442 18.3131L46.9667 19.5328L51.9336 24.4884L47.6802 28.7306Z" fill="url(#paint0_linear_146_10)"/>
</g>
<defs>
<filter id="filter0_d_146_10" x="0" y="0" width="62" height="62" filterUnits="userSpaceOnUse" color-interpolation-filters="sRGB">
<feFlood flood-opacity="0" result="BackgroundImageFix"/>
<feColorMatrix in="SourceAlpha" type="matrix" values="0 0 0 0 0 0 0 0 0 0 0 0 0 0 0 0 0 0 127 0" result="hardAlpha"/>
<feOffset dy="4"/>
<feGaussianBlur stdDeviation="2"/>
<feComposite in2="hardAlpha" operator="out"/>
<feColorMatrix type="matrix" values="0 0 0 0 0 0 0 0 0 0 0 0 0 0 0 0 0 0 0.25 0"/>
<feBlend mode="normal" in2="BackgroundImageFix" result="effect1_dropShadow_146_10"/>
<feBlend mode="normal" in="SourceGraphic" in2="effect1_dropShadow_146_10" result="shape"/>
</filter>
<linearGradient id="paint0_linear_146_10" x1="4.00049" y1="3" x2="62.5664" y2="9.43418" gradientUnits="userSpaceOnUse">
<stop stop-color="#FFA500"/>
<stop offset="0.510417" stop-color="#C3080F"/>
<stop offset="1" stop-color="#C30B5F"/>
</linearGradient>
</defs>
</svg>
