<svg width="48" height="48" viewBox="0 0 48 48" fill="none" xmlns="http://www.w3.org/2000/svg">
<path fill-rule="evenodd" clip-rule="evenodd" d="M6 0C2.68629 0 0 2.68629 0 6V42C0 45.3137 2.68629 48 6 48H42C45.3137 48 48 45.3137 48 42V6C48 2.68629 45.3137 0 42 0H6ZM19.1187 23.9953C19.1187 21.0141 21.5234 18.6094 24.5047 18.6094C27.4859 18.6094 29.8906 21.0141 29.8906 23.9953C29.8906 26.9766 27.4859 29.3812 24.5047 29.3812C21.5234 29.3812 19.1187 26.9766 19.1187 23.9953ZM21.0031 23.9953C21.0031 25.9266 22.5781 27.4969 24.5047 27.4969C26.4312 27.4969 28.0062 25.9266 28.0062 23.9953C28.0062 22.0641 26.4359 20.4937 24.5047 20.4937C22.5734 20.4937 21.0031 22.0641 21.0031 23.9953ZM30.1109 19.6453C30.8047 19.6453 31.3672 19.0875 31.3672 18.3891C31.3672 17.6953 30.8047 17.1328 30.1109 17.1328C29.4172 17.1328 28.8547 17.6953 28.8547 18.3891C28.8547 19.0828 29.4125 19.6453 30.1109 19.6453ZM33.2375 15.2625C34.4703 16.4906 34.8547 17.9812 34.9343 19.6641C35.0328 21.3984 35.0328 26.5922 34.9343 28.3266C34.85 30.0094 34.4656 31.5 33.2375 32.7281C32.0094 33.9609 30.5187 34.3453 28.8359 34.425C27.1015 34.5234 21.9031 34.5234 20.1687 34.425C18.4859 34.3406 17 33.9562 15.7672 32.7281C14.5344 31.5 14.15 30.0094 14.0703 28.3266C13.9719 26.5922 13.9719 21.3937 14.0703 19.6594C14.1547 17.9766 14.5344 16.4859 15.7672 15.2578C17 14.0297 18.4906 13.6453 20.1687 13.5656C21.9031 13.4672 27.1015 13.4672 28.8359 13.5656C30.5187 13.65 32.0094 14.0344 33.2375 15.2625ZM30.6969 32.1844C31.6203 31.814 32.3281 31.1062 32.6937 30.1875C33.1641 29.0054 33.138 26.4198 33.121 24.7437C33.1182 24.4657 33.1156 24.2127 33.1156 23.9953C33.1156 23.7778 33.1182 23.5249 33.121 23.2469C33.138 21.5718 33.1641 18.9892 32.6937 17.8031C32.3234 16.8797 31.6156 16.1719 30.6969 15.8062C29.5111 15.3384 26.9129 15.3633 25.2374 15.3794C24.9655 15.382 24.718 15.3844 24.5047 15.3844C24.2872 15.3844 24.0343 15.3818 23.7563 15.379C22.0811 15.362 19.4985 15.3359 18.3125 15.8062C17.3891 16.1766 16.6812 16.8844 16.3156 17.8031C15.8478 18.9889 15.8727 21.587 15.8888 23.2626C15.8914 23.5345 15.8937 23.782 15.8937 23.9953C15.8937 24.2128 15.8912 24.4657 15.8884 24.7437C15.8714 26.4189 15.8452 29.0015 16.3156 30.1875C16.6859 31.1109 17.3937 31.8187 18.3125 32.1844C19.4983 32.6522 22.0964 32.6273 23.772 32.6112C24.0438 32.6086 24.2914 32.6062 24.5047 32.6062C24.7221 32.6062 24.9751 32.6088 25.253 32.6116C26.9282 32.6286 29.5108 32.6548 30.6969 32.1844Z" fill="#8000FF"/>
</svg>
