<svg width="48" height="48" viewBox="0 0 48 48" fill="none" xmlns="http://www.w3.org/2000/svg">
<path fill-rule="evenodd" clip-rule="evenodd" d="M6 0C2.68629 0 0 2.68629 0 6V42C0 45.3137 2.68629 48 6 48H42C45.3137 48 48 45.3137 48 42V6C48 2.68629 45.3137 0 42 0H6ZM14.3469 33H18.7006V18.9797H14.3469V33ZM14 14.5219C14 15.9141 15.1292 17.0672 16.5214 17.0672C17.9131 17.0672 19.0428 15.9141 19.0428 14.5219C19.0428 13.8532 18.7772 13.2118 18.3043 12.739C17.8315 12.2661 17.1901 12.0005 16.5214 12.0005C15.8527 12.0005 15.2114 12.2661 14.7385 12.739C14.2656 13.2118 14 13.8532 14 14.5219ZM30.6509 33H34.9953H35V25.2984C35 21.5297 34.19 18.6281 29.7838 18.6281C27.6655 18.6281 26.2456 19.7906 25.6644 20.8922H25.6034V18.9797H21.4278V33H25.7769V26.0578C25.7769 24.2297 26.1237 22.4625 28.3873 22.4625C30.6181 22.4625 30.6509 24.5484 30.6509 26.175V33Z" fill="#8000FF"/>
</svg>
