<svg width="36" height="32" viewBox="0 0 36 32" fill="none" xmlns="http://www.w3.org/2000/svg">
<path d="M35 10C34.875 10 34.75 10.025 34.625 10.075L24 14L23.3563 13.775C24.8125 11.5938 26 9.325 26 7.6875C26 3.4375 22.4188 0 18 0C13.5813 0 10 3.44375 10 7.6875C10 8.425 10.25 9.3 10.65 10.225L1.25625 13.5C0.5 13.8 0 14.5375 0 15.3562V31C0 31.575 0.46875 32 1 32C1.125 32 1.25 31.975 1.375 31.925L12 28L22.75 31.7938C23.5625 32.0625 24.4375 32.0687 25.25 31.8062L34.7438 28.5C35.5063 28.1938 36 27.4625 36 26.6437V11C36 10.425 35.5312 10 35 10ZM11 26.2375L1.99375 29.5625L1.9125 15.3813L11 12.225V26.2375ZM18 2C21.3062 2 24 4.55 24 7.6875C24 9.375 21.6187 13.2437 18 17.4875C14.3813 13.2437 12 9.375 12 7.6875C12 4.55 14.6938 2 18 2ZM23 29.7625L13 26.2313V14.3C14.525 16.5063 16.2563 18.55 17.2313 19.6562C17.4313 19.8875 17.7188 20 18 20C18.2812 20 18.5625 19.8875 18.7687 19.6562C19.5687 18.75 20.875 17.2125 22.1625 15.475L23 15.7688V29.7625ZM25 29.775V15.7625L34.0062 12.4375L34.0875 26.6187L25 29.775ZM19.5 8C19.5 7.16875 18.825 6.5 18 6.5C17.175 6.5 16.5 7.16875 16.5 8C16.5 8.825 17.175 9.5 18 9.5C18.825 9.5 19.5 8.83125 19.5 8Z" fill="#4C74FF"/>
</svg>
