<svg width="32" height="32" viewBox="0 0 32 32" fill="none" xmlns="http://www.w3.org/2000/svg">
<path d="M16.0001 14C11.037 14 4.0001 21.6725 4.0001 26.5156C4.0001 28.6969 5.67573 30 8.48385 30C11.5364 30 13.552 28.4325 16.0001 28.4325C18.4695 28.4325 20.4907 30 23.5164 30C26.3245 30 28.0001 28.6969 28.0001 26.5156C28.0001 21.6725 20.9632 14 16.0001 14ZM23.5164 28C22.2476 28 21.1532 27.6394 19.9945 27.2575C18.7645 26.8519 17.4932 26.4331 16.0001 26.4331C14.522 26.4331 13.2595 26.85 12.0382 27.2531C10.8732 27.6375 9.7726 28.0006 8.48385 28.0006C6.0001 28 6.0001 26.8825 6.0001 26.5156C6.0001 22.5844 12.262 16 16.0001 16C19.7382 16 26.0001 22.5844 26.0001 26.5156C26.0001 26.8825 26.0001 28 23.5164 28ZM29.677 10.0794C29.4539 10.0256 29.227 10 29.0014 10C27.3857 10 25.7751 11.3125 25.2051 13.2119C24.5551 15.3775 25.5032 17.4856 27.3232 17.9206C27.547 17.9744 27.7732 18 27.9989 18C29.6145 18 31.2251 16.6875 31.7951 14.7881C32.4451 12.6225 31.497 10.5144 29.677 10.0794ZM29.8795 14.2131C29.5439 15.3313 28.6595 16 27.9989 16C27.9264 16 27.8557 15.9919 27.7882 15.9756C27.557 15.9206 27.3682 15.7681 27.227 15.5225C26.9689 15.0738 26.9295 14.4256 27.1207 13.7875C27.4564 12.6688 28.3407 12 29.002 12C29.0745 12 29.1451 12.0081 29.2126 12.0244C29.4439 12.0794 29.6326 12.2325 29.7739 12.4775C30.0314 12.9263 30.0714 13.5744 29.8795 14.2131ZM19.9101 11.9131C20.132 11.9713 20.357 11.9994 20.5826 11.9994C22.3226 11.9994 24.0964 10.3231 24.7514 7.92127C25.4914 5.20752 24.5239 2.59564 22.5901 2.08627C22.3706 2.0283 22.1446 1.9991 21.9176 1.99939C20.1776 1.99939 18.4039 3.67564 17.7489 6.07814C17.0089 8.79189 17.9764 11.4044 19.9101 11.9131ZM19.6782 6.60502C20.142 4.90502 21.277 4.00002 21.9176 4.00002C21.9745 4.00002 22.0282 4.00689 22.0807 4.02064C22.3389 4.08877 22.5257 4.33314 22.637 4.52627C22.9545 5.07627 23.1695 6.11877 22.8214 7.39564C22.3576 9.09502 21.2232 10 20.582 10C20.5251 10 20.4714 9.99314 20.4182 9.97939C20.1607 9.91189 19.9732 9.66752 19.862 9.47439C19.5451 8.92377 19.3301 7.88189 19.6782 6.60502ZM11.4176 12C11.6432 12 11.8682 11.9719 12.0901 11.9138C14.0239 11.405 14.9914 8.79252 14.2514 6.07877C13.5964 3.67627 11.8226 2.00002 10.0826 2.00002C9.85698 2.00002 9.63198 2.02814 9.4101 2.08689C7.47635 2.59564 6.50885 5.20814 7.24885 7.92189C7.90385 10.3238 9.67823 12 11.4176 12ZM9.3626 4.52627C9.47385 4.33314 9.66135 4.08877 9.91885 4.02064C9.97198 4.00689 10.0251 4.00002 10.082 4.00002C10.7232 4.00002 11.8576 4.90502 12.3214 6.60502C12.6695 7.88189 12.4545 8.92439 12.137 9.47439C12.0257 9.66752 11.8389 9.91189 11.5807 9.97939C11.5276 9.99314 11.4745 10 11.4176 10C10.7764 10 9.64198 9.09502 9.17823 7.39502C8.8301 6.11877 9.0451 5.07627 9.3626 4.52627ZM4.6776 17.9206C6.4976 17.4856 7.44573 15.3775 6.7951 13.2119C6.2251 11.3125 4.61447 10 2.99885 10C2.7726 10 2.54635 10.0256 2.32322 10.0794C0.503224 10.5144 -0.444901 12.6225 0.205099 14.7881C0.775099 16.6875 2.38635 18 4.00135 18C4.2276 18 4.45385 17.9744 4.6776 17.9206ZM2.12072 14.2125C1.92947 13.5744 1.96885 12.9256 2.22697 12.4775C2.36822 12.2319 2.55697 12.0794 2.78822 12.0244C2.85572 12.0081 2.92635 12 2.99885 12C3.65947 12 4.54385 12.6688 4.87947 13.7869C5.07072 14.425 5.03135 15.0738 4.77322 15.5225C4.63198 15.7681 4.44322 15.9206 4.21197 15.9756C4.14322 15.9919 4.07447 16 4.00135 16C3.34072 16 2.45635 15.3313 2.12072 14.2125Z" fill="#4C74FF"/>
</svg>
