<svg width="48" height="48" viewBox="0 0 48 48" fill="none" xmlns="http://www.w3.org/2000/svg">
<path d="M48 24C48 32.2711 41.2711 39 33 39H10.3714L16.7652 45.3938C17.2045 45.8332 17.2045 46.5455 16.7652 46.9849L16.235 47.5151C15.7957 47.9544 15.0833 47.9544 14.6439 47.5151L5.42428 38.2955C4.98497 37.8562 4.98497 37.1438 5.42428 36.7044L14.6439 27.4848C15.0833 27.0455 15.7956 27.0455 16.235 27.4848L16.7652 28.015C17.2045 28.4543 17.2045 29.1667 16.7652 29.6061L10.3714 36H33C39.6168 36 45 30.6168 45 24C45 21.323 44.1185 18.8483 42.6308 16.8499C42.2964 16.4006 42.3385 15.7753 42.7345 15.3793L43.2694 14.8445C43.7531 14.3607 44.5517 14.4182 44.9647 14.9636C46.8689 17.4786 48 20.6095 48 24ZM5.36916 31.1501C3.88153 29.1518 3 26.677 3 24C3 17.3832 8.38322 12 15 12H37.6286L31.2348 18.3938C30.7955 18.8332 30.7955 19.5455 31.2348 19.9849L31.765 20.5151C32.2043 20.9544 32.9167 20.9544 33.3561 20.5151L42.5757 11.2955C43.015 10.8562 43.015 10.1438 42.5757 9.70444L33.3562 0.48488C32.9168 0.0455674 32.2045 0.0455674 31.7651 0.48488L31.2349 1.01513C30.7956 1.45444 30.7956 2.16675 31.2349 2.60616L37.6286 9H15C6.72891 9 0 15.7289 0 24C0 27.3905 1.13109 30.5214 3.03525 33.0363C3.44822 33.5817 4.24678 33.6393 4.73053 33.1554L5.26538 32.6206C5.66147 32.2246 5.70356 31.5994 5.36916 31.1501Z" fill="url(#paint0_linear_50_4734)"/>
<defs>
<linearGradient id="paint0_linear_50_4734" x1="0" y1="0.155396" x2="52.1833" y2="5.28463" gradientUnits="userSpaceOnUse">
<stop stop-color="#FFA500"/>
<stop offset="0.510417" stop-color="#C3080F"/>
<stop offset="1" stop-color="#C30B5F"/>
</linearGradient>
</defs>
</svg>
