<svg width="48" height="48" viewBox="0 0 48 48" fill="none" xmlns="http://www.w3.org/2000/svg">
<path d="M34.5055 8.25275C33.4672 8.25269 32.4522 8.56053 31.5889 9.13733C30.7256 9.71412 30.0527 10.534 29.6553 11.4932C29.2579 12.4524 29.154 13.508 29.3565 14.5263C29.559 15.5446 30.059 16.48 30.7931 17.2142C31.5273 17.9484 32.4627 18.4484 33.481 18.651C34.4993 18.8535 35.5549 18.7496 36.5141 18.3522C37.4733 17.9549 38.2932 17.282 38.87 16.4187C39.4469 15.5554 39.7547 14.5405 39.7547 13.5022C39.7542 12.1102 39.2009 10.7753 38.2166 9.79097C37.2323 8.80663 35.8975 8.25336 34.5055 8.25275ZM34.5055 15.752C34.0605 15.752 33.6255 15.6201 33.2555 15.3729C32.8855 15.1257 32.5971 14.7744 32.4268 14.3633C32.2565 13.9522 32.2119 13.4998 32.2987 13.0634C32.3855 12.627 32.5997 12.2261 32.9144 11.9114C33.229 11.5967 33.6299 11.3825 34.0663 11.2956C34.5027 11.2088 34.9551 11.2534 35.3662 11.4236C35.7773 11.5939 36.1287 11.8823 36.3759 12.2523C36.6231 12.6222 36.7551 13.0572 36.7551 13.5022C36.7545 14.0987 36.5173 14.6705 36.0955 15.0923C35.6738 15.5141 35.1019 15.7514 34.5055 15.752ZM47.3593 1.8089C47.249 1.29675 46.7045 0.752747 46.1923 0.64325C43.1843 0 40.827 0 38.4798 0C28.8059 0 23.0046 5.17474 18.6738 11.9989H8.90771C7.38024 11.9989 5.57135 13.1166 4.888 14.4829L0.256164 23.7444C0.11294 24.0603 0.0328256 24.4012 0.020325 24.7478C0.0204972 25.3444 0.257561 25.9165 0.679406 26.3384C1.10125 26.7603 1.67335 26.9974 2.26996 26.9976H12.0126C14.3993 26.9977 16.6882 27.9458 18.3757 29.6335C20.0633 31.3211 21.0114 33.61 21.0113 35.9967V45.7458C21.0114 46.3424 21.2485 46.9146 21.6703 47.3365C22.0922 47.7584 22.6643 47.9954 23.261 47.9956C23.6075 47.9827 23.9482 47.9026 24.2642 47.7598L33.5189 43.1285C34.8836 42.4455 36.0002 40.6382 36.0002 39.1122V29.322C42.8032 24.9807 47.9983 19.1598 47.9983 9.53375C48.0069 7.17609 48.0069 4.81842 47.3593 1.8089ZM3.48321 23.9978L7.57086 15.8245C7.74444 15.4772 8.51916 14.9985 8.90771 14.9985H16.884C15.5775 17.6292 13.9109 20.9982 12.4257 23.9978L12.4319 24.0403C12.2895 24.0353 5.72039 23.9978 3.48321 23.9978ZM33.0005 39.1122C33.0005 39.4995 32.5232 40.2724 32.1766 40.4458L24.0108 44.5323C24.0108 42.2915 23.9729 35.7142 23.9676 35.569L24.002 35.5734C27.0016 34.0897 30.3585 32.4243 32.9888 31.1164L33.0005 31.1166L33.0005 39.1122ZM23.4307 32.5016C22.8565 30.6326 21.833 28.9327 20.4498 27.5508C19.0666 26.1689 17.3658 25.147 15.4962 24.5746C20.3738 14.8259 24.8496 2.99963 38.4798 2.99963C40.4639 2.99963 42.3513 2.99963 44.6129 3.39221C45.0128 5.67756 45.0058 7.55328 44.9987 9.53375C44.9987 23.1248 33.0945 27.6707 23.4307 32.5016H23.4307ZM9.60315 29.9973C5.09564 29.9973 0.19043 33.6861 0.01575 45H0V48H3V47.9782C19.0891 47.6653 20.3333 37.1948 15.5438 32.3813C14.1431 30.9736 11.9271 29.9973 9.60314 29.9973H9.60315ZM14.5638 40.2534C13.3605 43.1735 9.1604 44.8874 2.99817 44.9925C3.00421 44.6592 2.89325 33.0029 9.60315 33.0029C11.0184 33.0029 12.5202 33.5931 13.4291 34.5066C14.6301 35.7134 15.4358 38.1378 14.5638 40.2534H14.5638Z" fill="url(#paint0_linear_50_4726)"/>
<defs>
<linearGradient id="paint0_linear_50_4726" x1="0" y1="0" x2="52.1898" y2="5.09666" gradientUnits="userSpaceOnUse">
<stop stop-color="#FFA500"/>
<stop offset="0.510417" stop-color="#C3080F"/>
<stop offset="1" stop-color="#C30B5F"/>
</linearGradient>
</defs>
</svg>
