<svg width="32" height="32" viewBox="0 0 32 32" fill="none" xmlns="http://www.w3.org/2000/svg">
<path d="M31.3531 28.255L3.74437 0.646875C3.2975 0.2 2.74812 0 2.20937 0C1.08187 0 0 0.875625 0 2.19812V29.8062C0 31.0181 0.981875 32 2.19375 32H29.8019C31.7562 32 32.735 29.6375 31.3531 28.255ZM29.9806 29.8806C29.9312 30 29.8531 30 29.8019 30H2.19375C2.08687 30 2 29.9131 2 29.8062V2.19812C2 2.0025 2.20062 2 2.21 2C2.24 2 2.27437 2.005 2.33063 2.06125L6.9425 6.67312L5.88188 7.73375C5.68687 7.92875 5.68687 8.24563 5.88188 8.44063L6.58938 9.1475C6.6358 9.19397 6.69095 9.23082 6.75166 9.25591C6.81237 9.28101 6.87743 9.29387 6.94312 9.29375C7.07125 9.29375 7.19875 9.245 7.29688 9.1475L8.3575 8.08687L11.1862 10.9156L10.1256 11.9762C9.93062 12.1712 9.93062 12.4881 10.1256 12.6831L10.8325 13.39C10.8789 13.4365 10.9341 13.4733 10.9948 13.4984C11.0555 13.5235 11.1206 13.5364 11.1862 13.5363C11.3144 13.5363 11.4425 13.4875 11.54 13.39L12.6006 12.3294L15.4294 15.1581L14.3687 16.2188C14.1737 16.4137 14.1737 16.7306 14.3687 16.9256L15.0756 17.6325C15.1221 17.679 15.1772 17.7158 15.2379 17.7409C15.2986 17.766 15.3637 17.7789 15.4294 17.7787C15.5575 17.7787 15.6856 17.73 15.7831 17.6325L16.8438 16.5719L19.6719 19.4L18.6112 20.4606C18.4163 20.6556 18.4163 20.9725 18.6112 21.1675L19.3181 21.8744C19.4156 21.9719 19.5438 22.0206 19.6719 22.0206C19.8 22.0206 19.9275 21.9719 20.0256 21.8744L21.0863 20.8137L23.9144 23.6419L22.8538 24.7025C22.6588 24.8975 22.6588 25.2144 22.8538 25.4094L23.5606 26.1162C23.6581 26.2137 23.7863 26.2625 23.9144 26.2625C24.0425 26.2625 24.17 26.2137 24.2681 26.1162L25.3288 25.0556L29.9406 29.6675C29.975 29.7056 30.0306 29.7612 29.9806 29.8806ZM7.70687 14.2925C7.42188 14.0075 6.98813 13.9206 6.61688 14.0756C6.43425 14.1514 6.27817 14.2795 6.16837 14.444C6.05857 14.6084 5.99998 14.8017 6 14.9994V24.9994C6 25.5519 6.4475 25.9994 7 25.9994H17C17.4044 25.9994 17.7694 25.7562 17.9237 25.3819C17.9991 25.199 18.0187 24.998 17.9801 24.8041C17.9415 24.6102 17.8464 24.432 17.7069 24.2919L7.70687 14.2925ZM8 23.9994V17.4137L14.5856 24H8V23.9994Z" fill="#4D74FF"/>
</svg>
