<svg width="500" height="500" viewBox="0 0 500 500" fill="none" xmlns="http://www.w3.org/2000/svg">
<path d="M287.474 0C293.75 3.1901 300.781 5.49479 306.159 9.7526C315.794 17.2786 319.609 28.0599 319.609 40.2604C319.609 112.708 319.609 185.156 319.466 257.617C319.317 263.089 321.169 268.427 324.674 272.63C347.356 261.693 367.409 272.292 375.664 290.938C383.242 287.526 391.041 285.547 399.518 287.383C407.381 288.973 414.47 293.191 419.618 299.344C424.767 305.496 427.671 313.216 427.851 321.237C428.852 351.022 422.328 380.579 408.88 407.174C402.955 418.893 397.369 430.768 391.302 442.331C386.252 451.819 383.761 462.459 384.075 473.203C384.218 478.568 384.192 483.932 384.075 489.297C383.919 495.221 380.169 498.997 374.205 499.01C324.492 499.01 274.774 499.01 225.052 499.01C218.945 499.01 215.403 495.247 215.182 488.763C214.895 480.326 215.468 471.836 214.388 463.477C213.554 457.031 210.781 450.833 208.789 444.557C207.76 441.315 205.521 440.456 202.109 440.482C171.718 440.625 141.341 440.573 110.963 440.56C88.6846 440.56 71.2757 423.49 71.2236 401.289C71.1195 355.959 71.1195 310.634 71.2236 265.313C71.2236 257.943 75.0518 253.438 81.1455 253.424C87.2393 253.411 90.9502 257.669 90.9632 265.313C90.9632 309.661 90.9632 354.01 91.0934 398.359C91.0585 402.698 91.9462 406.994 93.6976 410.964C95.1147 414.027 97.3974 416.609 100.264 418.39C103.131 420.172 106.456 421.075 109.83 420.99C136.797 421.172 163.776 420.99 190.742 420.99C191.225 420.878 191.693 420.708 192.135 420.482C191.041 418.828 190.078 417.24 188.997 415.742C167.605 386.415 156.236 350.973 156.575 314.674C156.575 290.794 156.575 266.914 156.575 243.06C156.575 233.216 160.703 229.779 170.547 230.534C183.919 231.576 195.586 236.602 206.367 245.482V206.719H201.159C188.815 206.719 176.419 206.823 164.114 206.719C148.919 206.523 135.95 195 135.468 179.792C134.757 157.066 134.757 134.332 135.468 111.589C135.95 95.9635 148.971 84.2448 164.778 84.1146C185.898 83.8802 207.022 83.8802 228.151 84.1146C235.551 84.0755 242.691 86.8382 248.138 91.8477C253.585 96.8572 256.934 103.742 257.513 111.12C258.125 117.721 257.617 124.44 258.073 131.068C258.289 133.161 259.323 135.085 260.95 136.419C271.471 143.997 276.914 154.01 276.888 167.031C276.823 194.375 276.888 221.615 276.888 248.906V253.711L300.065 251.328V42.6172C300.065 26.6797 292.812 19.4922 276.81 19.4922C263.051 19.5182 249.34 19.5313 235.677 19.5313C235.204 19.6324 234.745 19.7897 234.31 20C234.244 32.6172 229.7 43.5286 219.414 51.5495C212.339 57.1574 203.436 59.9412 194.427 59.362C189.466 59.1526 184.597 57.9485 180.11 55.8214C175.623 53.6943 171.609 50.6874 168.307 46.9792C161.276 39.349 158.333 30.1302 158.411 19.4271H112.317C98.6325 19.4271 90.9632 27.1094 90.8721 40.8854C90.7939 50.7943 90.8721 60.7161 90.8721 70.625C90.8721 104.575 90.8721 138.524 90.8721 172.474C90.8721 174.258 90.8721 176.055 90.7549 177.826C90.234 183.607 86.445 187.174 80.9502 187.122C75.4554 187.07 71.6273 183.216 71.1585 177.656C71.0413 176.211 71.1585 174.74 71.1585 173.281V42.7344C71.1585 20.1432 80.9111 7.05729 102.513 0.598958C102.799 0.507813 103.007 0.208333 103.255 0L287.474 0ZM176.263 251.914C176.263 273.711 176.198 295.469 176.263 317.214C176.328 340.807 181.237 363.464 192.773 384.01C201.172 398.945 211.393 412.878 221.028 427.096C227.877 437.201 232.838 447.93 233.971 460.208C234.57 466.602 234.778 473.021 235.143 479.232H364.492C364.492 477.227 364.57 475.599 364.492 474.023C363.659 459.219 367.278 445.508 374.179 432.435C380.247 420.977 385.742 409.232 391.562 397.643C403.079 374.639 408.716 349.14 407.968 323.424C407.957 320.676 407.427 317.955 406.406 315.404C405.14 312.384 402.895 309.877 400.033 308.286C397.172 306.694 393.858 306.11 390.625 306.628C382.955 307.93 378.424 313.034 377.317 321.745C376.484 328.255 372.695 331.784 366.901 331.419C361.484 331.081 357.864 326.927 357.786 320.807C357.708 314.688 357.916 308.776 357.721 302.773C357.667 298.854 356.101 295.108 353.35 292.316C350.598 289.525 346.875 287.904 342.957 287.793C339.039 287.683 335.23 289.09 332.325 291.721C329.421 294.352 327.645 298.004 327.369 301.914C326.601 309.219 322.942 313.073 316.953 312.904C310.963 312.734 307.448 308.346 307.317 301.185C307.226 295.977 307.435 290.768 307.187 285.56C307 281.962 305.507 278.556 302.987 275.982C300.468 273.407 297.095 271.84 293.502 271.576C285.234 270.846 278.971 275.078 277.343 283.008C276.64 286.458 277.018 290.104 276.744 293.659C276.585 295.911 275.649 298.038 274.096 299.677C272.544 301.316 270.471 302.365 268.231 302.646C265.991 302.928 263.723 302.423 261.813 301.218C259.904 300.014 258.471 298.184 257.76 296.042C257.318 293.981 257.156 291.87 257.278 289.766C257.278 249.835 257.278 209.883 257.278 169.909C257.278 168.281 257.356 166.641 257.2 165.039C256.497 158.177 251.64 152.37 245.481 151.003C238.893 149.518 232.109 151.797 229.114 157.656C227.439 161.304 226.611 165.284 226.692 169.297C226.536 218.672 226.601 268.06 226.575 317.435C226.575 319.701 226.953 322.24 226.067 324.154C224.856 326.758 223.073 329.753 220.703 331.081C214.049 334.792 206.849 329.544 206.744 321.146C206.601 310.104 206.849 299.01 206.601 288.008C206.172 271.133 192.213 254.518 176.263 251.914ZM206.653 187.122C206.653 179.948 206.653 173.464 206.653 166.979C206.771 149.167 217.343 135.924 234.687 131.445C235.451 131.113 236.123 130.603 236.649 129.957C237.175 129.312 237.538 128.549 237.708 127.734C238.005 123.039 238.036 118.331 237.799 113.633C237.591 107.995 233.971 104.115 228.255 104.076C206.988 103.902 185.72 103.902 164.453 104.076C158.528 104.076 154.804 108.086 154.778 114.023C154.683 134.944 154.683 155.872 154.778 176.81C154.778 182.37 158.463 186.901 163.893 187.031C177.929 187.331 192.018 187.122 206.653 187.122ZM214.14 19.7786H178.489C177.721 30.9375 185.794 39.8958 196.328 39.8958C206.862 39.8958 214.935 30.9375 214.14 19.7786V19.7786Z" fill="black"/>
<path d="M90.7552 220.286C90.7768 221.58 90.5361 222.865 90.0477 224.063C89.5593 225.262 88.8333 226.349 87.9135 227.259C86.9936 228.169 85.899 228.883 84.6956 229.359C83.4922 229.834 82.2049 230.061 80.9114 230.026C78.9971 230 77.1331 229.41 75.5535 228.328C73.9739 227.246 72.7492 225.722 72.0331 223.946C71.3171 222.171 71.1417 220.223 71.5289 218.348C71.9162 216.474 72.8489 214.755 74.2098 213.408C75.5707 212.062 77.2992 211.148 79.1781 210.78C81.057 210.413 83.0025 210.609 84.7703 211.344C86.5381 212.079 88.0493 213.32 89.1142 214.911C90.179 216.502 90.7499 218.372 90.7552 220.286V220.286Z" fill="black"/>
</svg>
