<svg width="500" height="500" viewBox="0 0 500 500" fill="none" xmlns="http://www.w3.org/2000/svg">
<path d="M253.406 0C260.987 8.83789 269.141 17.2485 276.038 26.5869C296.679 54.2007 311.292 85.84 318.933 119.458C325.501 147.983 327.099 177.426 323.658 206.494C322.888 212.903 323.902 218.042 327.979 223.437C343.018 243.384 357.447 263.806 372.315 283.923C375.354 288.049 375.904 291.895 373.963 296.582C369.08 308.398 364.392 320.3 359.619 332.178C355.664 342.041 351.319 343.433 342.639 337.598L299.378 308.484C297.437 313.477 295.471 318.054 293.86 322.754C291.846 328.638 289.417 333.74 280.713 332.312C284.058 339.111 286.463 345.117 289.807 350.549C295.716 360.144 289.551 366.516 280.152 366.309C260.34 365.845 240.515 366.174 220.703 366.162C219.407 366.201 218.11 366.148 216.822 366.003C210.193 364.99 207.056 359.582 209.925 353.491C212.976 346.887 216.37 340.442 219.788 333.581C218.899 333.173 217.965 332.869 217.005 332.678C212.305 332.385 209.79 329.651 208.264 325.464C206.214 319.885 203.968 314.38 201.66 308.484L158.411 337.598C149.866 343.323 145.337 341.992 141.565 332.629C136.682 320.618 132.032 308.545 127.088 296.582C125.147 291.895 125.696 288.037 128.736 283.923C143.567 263.806 158.033 243.384 173.023 223.425C174.848 221.132 176.179 218.487 176.933 215.656C177.687 212.824 177.848 209.867 177.405 206.97C169.983 137.842 187.171 75.4883 229.663 20.3613C235.144 13.2202 241.565 6.7749 247.559 0H253.406ZM221.595 315.845C240.442 315.845 258.118 315.845 275.806 315.723C276.586 315.594 277.325 315.283 277.961 314.814C278.598 314.345 279.114 313.732 279.468 313.025C292.896 277.49 303.882 241.37 307.325 203.284C311.719 154.785 303.955 108.704 280.762 65.5518C272.197 49.6607 261.967 34.725 250.244 20.9961C245.105 27.8198 240.052 34.1186 235.45 40.7104C208.997 78.5522 194.532 120.544 192.725 166.809C191.508 196.984 195.067 227.162 203.272 256.226C208.875 276.269 215.467 296.045 221.595 315.845ZM181.47 240.161C169.141 257.08 156.946 273.791 144.849 290.588C144.529 291.123 144.327 291.719 144.256 292.338C144.184 292.957 144.245 293.584 144.434 294.177C147.669 302.576 151.075 310.913 154.627 319.751L195.606 292.114C190.869 274.719 186.255 257.751 181.47 240.186V240.161ZM319.519 240.259C314.759 257.69 310.096 274.756 305.347 292.114L346.387 319.824C349.707 311.45 352.661 303.589 355.982 295.886C357.202 293.066 356.665 291.199 354.932 288.855C344.544 274.78 334.326 260.596 324.036 246.448C322.547 244.36 321.045 242.322 319.519 240.283V240.259ZM231.116 348.767H269.861C267.42 343.726 265.247 339.001 262.708 334.607C262.11 333.557 260.12 332.837 258.753 332.788C253.251 332.585 247.742 332.585 242.224 332.788C240.857 332.788 238.867 333.557 238.269 334.607C235.73 339.075 233.606 343.75 231.116 348.791V348.767Z" fill="black"/>
<path d="M26.1108 199.731V469.348C26.1108 480.2 28.3203 482.41 39.1724 482.41C180.164 482.41 321.155 482.41 462.146 482.41C464.587 482.41 467.432 482.654 469.238 481.47C471.521 479.968 473.23 477.295 474.634 474.817C475.342 473.596 474.854 471.643 474.854 470.02C474.854 381.812 474.854 293.612 474.854 205.42V199.768H469.055C427.795 199.768 386.54 199.768 345.288 199.768C343.189 199.849 341.09 199.61 339.063 199.06C337.216 198.611 335.606 197.482 334.556 195.898C333.506 194.313 333.092 192.391 333.398 190.515C333.437 188.705 334.135 186.971 335.363 185.64C336.59 184.309 338.262 183.473 340.063 183.289C342.306 182.951 344.571 182.796 346.838 182.825C387.122 182.825 427.405 182.825 467.688 182.825H474.597C474.695 181.03 474.841 179.492 474.854 177.942C474.854 166.736 474.854 155.526 474.854 144.312C474.854 135.767 472.473 133.325 463.867 133.325C423.096 133.325 382.328 133.325 341.565 133.325C339.298 133.345 337.035 133.124 334.814 132.666C330.774 131.775 328.784 128.735 328.711 124.902C328.582 123.172 329.057 121.451 330.054 120.031C331.051 118.611 332.509 117.581 334.18 117.114C336.2 116.539 338.293 116.259 340.393 116.284C381.653 116.235 422.913 116.235 464.172 116.284C481.262 116.284 491.992 126.77 491.992 143.823C492.057 253.141 492.057 362.455 491.992 471.765C491.992 491.138 477.454 499.377 464.209 499.353C321.794 499.068 179.342 499.068 36.853 499.353C23.2788 499.268 8.92335 490.723 8.93555 471.265C9.0088 362.264 9.0088 253.271 8.93555 144.287C8.93555 126.562 19.4214 116.138 37.1338 116.125C78.2227 116.125 119.32 116.125 160.425 116.125C161.886 116.072 163.349 116.154 164.795 116.37C169.275 117.224 172.327 120.63 172.351 124.634C172.376 128.638 169.409 131.958 164.832 132.825C162.91 133.122 160.965 133.249 159.021 133.203C119.397 133.203 79.7648 133.203 40.1245 133.203C27.2095 133.203 26.0742 134.351 26.0742 147.485V182.703H32.6172C73.2341 182.703 113.843 182.703 154.443 182.703C156.547 182.68 158.649 182.822 160.73 183.13C162.619 183.305 164.373 184.187 165.641 185.599C166.908 187.011 167.596 188.85 167.566 190.747C167.81 195.056 165.601 197.9 161.56 199.06C159.512 199.535 157.411 199.737 155.31 199.658C114.384 199.658 73.4497 199.658 32.5073 199.658L26.1108 199.731Z" fill="black"/>
<path d="M208.74 403.394C208.74 399.5 208.594 395.593 208.74 391.711C209.009 386.316 212.402 382.69 216.943 382.507C221.484 382.324 225.378 385.767 225.61 391.15C225.952 399.243 225.964 407.373 225.61 415.466C225.366 421.094 221.948 424.133 217.065 424.011C212.182 423.889 209.057 420.52 208.777 415.027C208.52 411.182 208.74 407.288 208.74 403.394Z" fill="black"/>
<path d="M292.298 403.284C292.298 407.178 292.432 411.072 292.298 414.966C292.041 420.459 288.806 423.914 284.119 424.048C279.236 424.182 275.696 421.179 275.44 415.576C275.061 407.483 275.086 399.353 275.44 391.26C275.659 385.852 279.48 382.397 283.985 382.507C288.758 382.617 292.029 386.377 292.334 392.09C292.334 392.419 292.334 392.737 292.334 393.066L292.298 403.284Z" fill="black"/>
<path d="M241.931 419.763C241.931 416.028 241.772 412.293 241.931 408.569C242.248 402.832 245.593 399.231 250.476 399.231C255.359 399.231 258.813 402.808 259.021 408.545C259.249 416.162 259.249 423.783 259.021 431.409C258.838 437.268 255.468 440.662 250.537 440.662C245.605 440.662 242.334 437.293 241.992 431.433C241.76 427.551 241.931 423.657 241.931 419.763Z" fill="black"/>
<path d="M117.187 166.357C114.981 166.222 112.913 165.238 111.418 163.61C109.923 161.983 109.116 159.839 109.167 157.629C109.284 155.481 110.235 153.462 111.817 152.003C113.399 150.544 115.488 149.76 117.639 149.817C119.79 149.874 121.835 150.769 123.337 152.31C124.839 153.851 125.681 155.917 125.683 158.069C125.617 160.282 124.694 162.383 123.109 163.929C121.525 165.475 119.401 166.346 117.187 166.357V166.357Z" fill="black"/>
<path d="M84.2288 149.768C85.3273 149.779 86.4126 150.008 87.4219 150.442C88.4312 150.875 89.3444 151.505 90.1086 152.294C90.8727 153.083 91.4727 154.016 91.8736 155.039C92.2745 156.062 92.4685 157.154 92.4442 158.252C92.2548 160.359 91.3262 162.331 89.8226 163.819C88.3191 165.307 86.3376 166.214 84.2288 166.382C82.0089 166.359 79.8885 165.457 78.3325 163.874C76.7765 162.29 75.9118 160.155 75.9281 157.935C75.8967 156.842 76.0911 155.755 76.4989 154.741C76.9068 153.727 77.5193 152.808 78.2984 152.042C79.0774 151.276 80.0061 150.678 81.0266 150.287C82.047 149.895 83.1371 149.719 84.2288 149.768Z" fill="black"/>
<path d="M59.2527 157.922C59.135 160.108 58.2202 162.175 56.6816 163.731C55.143 165.288 53.0871 166.226 50.9031 166.37C48.704 166.335 46.6056 165.442 45.055 163.883C43.5044 162.323 42.6243 160.219 42.6023 158.02C42.5651 156.933 42.7513 155.849 43.1493 154.837C43.5472 153.824 44.1486 152.904 44.9162 152.133C45.6839 151.362 46.6014 150.756 47.6123 150.354C48.6231 149.951 49.7057 149.76 50.7932 149.792C52.99 149.76 55.1109 150.595 56.695 152.118C58.2791 153.64 59.1983 155.726 59.2527 157.922V157.922Z" fill="black"/>
<path d="M250.72 108.105C261.692 108.22 272.182 112.629 279.941 120.388C287.7 128.147 292.109 138.637 292.224 149.609C292.224 172.4 273.12 191.284 250.207 191.113C239.237 190.993 228.75 186.581 220.993 178.824C213.235 171.066 208.824 160.579 208.703 149.609C208.74 126.831 227.758 107.983 250.72 108.105ZM275.134 149.756C275.117 144.893 273.661 140.144 270.95 136.107C268.239 132.071 264.394 128.927 259.899 127.071C255.404 125.216 250.46 124.733 245.691 125.682C240.922 126.631 236.54 128.971 233.099 132.406C229.657 135.841 227.309 140.218 226.35 144.985C225.391 149.752 225.865 154.697 227.711 159.195C229.558 163.694 232.694 167.545 236.726 170.264C240.757 172.983 245.503 174.449 250.366 174.475C256.926 174.478 263.219 171.876 267.861 167.241C272.504 162.605 275.115 156.316 275.122 149.756H275.134Z" fill="black"/>
</svg>
