<svg width="500" height="500" viewBox="0 0 500 500" fill="none" xmlns="http://www.w3.org/2000/svg">
<path d="M0 109.167H15.625V455.729C15.625 474.44 24.6354 483.398 43.4505 483.398C181.176 483.398 318.898 483.398 456.615 483.398C463.307 483.398 469.544 482.331 474.844 477.93C481.354 472.526 483.542 465.378 483.529 457.096C483.477 392.296 483.477 327.496 483.529 262.695V78.125H257.63V62.5H484.036C483.359 51.849 483.75 41.4062 481.745 31.4453C479.74 21.4844 469.909 15.625 458.724 15.625C428.837 15.5556 398.954 15.5556 369.076 15.625H272.904V0H466.914C467.761 0.39767 468.631 0.745485 469.518 1.04167C478.018 3.14751 485.558 8.06215 490.916 14.9891C496.274 21.916 499.135 30.4492 499.036 39.2057C499.036 179.492 499.036 319.779 499.036 460.065C499.082 465.189 498.106 470.271 496.166 475.014C494.226 479.757 491.362 484.066 487.739 487.69C484.116 491.314 479.808 494.181 475.065 496.122C470.323 498.063 465.241 499.041 460.117 498.997C319.666 498.997 179.214 498.997 38.763 498.997C27.7995 498.997 18.6719 494.753 10.9115 487.122C5.13021 481.471 2.51302 474.219 0 466.862V109.167Z" fill="black"/>
<path d="M195.911 0C197.344 0.598958 198.737 1.30208 200.208 1.78385C207.755 4.18814 214.337 8.93906 218.995 15.3446C223.653 21.7501 226.145 29.4756 226.107 37.3958C226.107 45.4948 226.107 53.5937 226.107 62.2135H241.406V77.8385H15.7031V93.5677H0V32.1615C0.392226 31.3121 0.73992 30.4429 1.04167 29.5573C2.40977 24.0221 4.98772 18.8591 8.59004 14.4395C12.1924 10.0199 16.7295 6.45365 21.875 3.9974C25.1302 2.34375 28.7109 1.30208 32.1615 0H195.911ZM15.625 62.0443H210.534C210.534 54.4141 210.534 47.1224 210.534 39.9089C210.482 24.8698 201.185 15.625 186.198 15.625C162.005 15.625 137.808 15.625 113.607 15.625C89.0885 15.625 64.5703 15.5599 40.0521 15.625C26.6276 15.625 16.4844 24.8568 15.7552 37.8776C15.2865 45.7943 15.625 53.75 15.625 62.0443Z" fill="black"/>
<path d="M249.674 0C253.889 0 257.305 3.41616 257.305 7.63021V7.63021C257.305 11.8443 253.889 15.2604 249.674 15.2604H249.31C245.096 15.2604 241.68 11.8443 241.68 7.63021V7.63021C241.68 3.41616 245.096 0 249.31 0H249.674Z" fill="black"/>
<path d="M350.82 101.367C381.671 101.367 412.522 101.367 443.372 101.367C458.021 101.367 467.812 111.107 467.825 125.69C467.825 166.602 467.825 207.517 467.825 248.437C467.825 263.073 458.06 272.878 443.489 272.878H258.385C243.75 272.878 233.932 263.112 233.932 248.555C233.932 207.626 233.932 166.706 233.932 125.794C233.932 111.172 243.698 101.367 258.268 101.367C289.119 101.35 319.969 101.35 350.82 101.367ZM351.367 116.992H260.221C252.135 116.992 249.479 119.687 249.479 127.839C249.479 167.309 249.479 206.775 249.479 246.237C249.479 254.727 252.083 257.344 260.456 257.344H441.237C449.648 257.344 452.239 254.74 452.239 246.237C452.239 206.94 452.239 167.639 452.239 128.333C452.239 119.505 449.752 116.979 441.015 116.979L351.367 116.992Z" fill="black"/>
<path d="M148.125 460.039C117.265 460.039 86.4148 460.039 55.5728 460.039C40.9764 460.039 31.2108 450.247 31.1978 435.625C31.1978 394.714 31.1978 353.798 31.1978 312.878C31.1978 298.294 41.0024 288.529 55.6248 288.529C117.335 288.529 179.036 288.529 240.729 288.529C255.312 288.529 265.091 298.32 265.091 312.93C265.091 353.841 265.091 394.757 265.091 435.677C265.091 450.273 255.299 460.026 240.677 460.039H148.125ZM148.021 444.414H238.646C246.797 444.414 249.505 441.745 249.518 433.685C249.518 394.05 249.518 354.423 249.518 314.805C249.518 306.745 246.797 304.063 238.646 304.063H57.8905C49.3879 304.063 46.7837 306.667 46.7837 315.039C46.7837 354.501 46.7837 393.967 46.7837 433.438C46.7837 441.849 49.3879 444.414 57.8905 444.414H148.021Z" fill="black"/>
<path d="M193.854 150.456C195.156 153.581 196.12 155.664 196.979 157.721C197.839 159.779 198.542 161.628 199.414 163.75C203.021 163.75 206.576 163.672 210.13 163.75C215.339 163.893 218.242 166.68 218.294 171.94C218.381 182.001 218.381 192.07 218.294 202.148C218.294 207.63 215.365 210.391 209.792 210.495C206.393 210.56 202.995 210.495 199.479 210.495L193.698 224.297C196.376 226.221 198.937 228.304 201.367 230.534C205.508 234.714 205.495 238.672 201.367 242.891C194.466 249.983 187.461 256.983 180.352 263.893C176.302 267.799 171.797 268.229 168.477 263.815C163.138 256.719 157.539 256.237 150.612 260.716C149.808 261.123 148.972 261.463 148.112 261.732C148.112 265.273 148.112 268.828 148.112 272.383C147.982 277.591 145.208 280.586 140.026 280.638C129.792 280.742 119.557 280.742 109.323 280.638C104.362 280.638 101.511 277.682 101.38 272.734C101.276 269.18 101.38 265.612 101.38 261.875C97.7345 260.312 94.271 258.646 90.6642 257.383C90.0325 257.257 89.3811 257.269 88.7543 257.417C88.1275 257.565 87.5399 257.847 87.0314 258.242C84.7788 260.091 82.9299 262.409 80.7163 264.323C76.8101 267.656 73.1121 267.695 69.4272 264.141C62.0835 257.031 54.8483 249.796 47.7215 242.435C44.1668 238.75 43.646 234.154 47.6434 231.315C55.8986 225.482 55.0392 219.088 50.6903 211.784C50.521 211.51 50.4038 211.211 50.0783 210.482C46.5496 210.482 42.8387 210.573 39.1147 210.482C34.1799 210.325 31.3022 207.487 31.2241 202.539C31.12 192.305 31.12 182.07 31.2241 171.836C31.2241 166.628 34.1798 163.893 39.4663 163.75C42.8778 163.646 46.2762 163.633 49.6877 163.568C49.8805 163.53 50.0654 163.459 50.2345 163.359C50.3915 162.945 50.5741 162.54 50.7814 162.148C55.0653 154.935 55.6772 148.75 47.7476 143.021C43.5809 140.013 44.1668 135.43 47.9559 131.536C54.9785 124.323 62.1009 117.205 69.3231 110.182C73.1642 106.471 77.7606 105.99 80.8205 110.247C86.4325 118.06 92.4481 117.526 99.5184 113.229C100.117 112.962 100.735 112.74 101.367 112.565C101.367 109.18 101.367 105.651 101.367 102.148C101.472 96.5494 104.193 93.6718 109.662 93.6198C119.74 93.5416 129.814 93.5416 139.883 93.6198C145.091 93.6198 147.969 96.4974 148.112 101.719C148.203 105.273 148.112 108.841 148.112 112.135C148.633 112.539 148.854 112.747 149.115 112.904C156.563 117.096 163.19 118.45 169.102 109.831C171.706 106.042 176.354 106.51 179.857 109.831C187.348 117.044 194.696 124.397 201.901 131.888C205.391 135.508 205.287 139.375 201.784 143.151C199.388 145.833 196.537 148.047 193.854 150.456ZM173.464 126.211C172.182 128.112 170.786 129.934 169.284 131.667C164.479 136.536 162.123 136.549 155.925 133.477C150.704 130.918 145.329 128.687 139.831 126.797C134.115 124.818 132.591 123.164 132.565 117.031C132.565 114.492 132.565 111.953 132.565 109.544H116.94C116.94 112.682 116.94 115.43 116.94 118.19C117.07 122.565 114.779 125.026 110.886 126.549C104.436 129.093 98.0297 131.736 91.6668 134.479C87.7606 136.159 84.4142 136.016 81.4455 132.904C79.4663 130.833 77.6434 128.62 75.8335 126.575L64.1147 137.891C66.0418 139.674 67.8778 141.224 69.5705 142.93C73.9325 147.357 73.9845 149.831 71.2241 155.508C68.6259 160.89 66.3349 166.416 64.3621 172.057C62.3439 177.786 60.6903 179.297 54.5705 179.323C52.0314 179.323 49.5054 179.323 47.0835 179.323V194.948H53.7892C60.9116 194.948 62.2918 196.25 64.5575 202.878C66.3833 208.223 68.5582 213.442 71.0679 218.503C74.0366 224.479 73.9845 226.849 69.3882 231.523C67.7085 233.216 65.8205 234.674 64.4403 235.872L75.7293 248.229C77.6955 245.82 79.3361 243.62 81.172 241.615C84.2189 238.281 87.7606 238.151 91.784 239.935C97.9732 242.695 104.228 245.299 110.547 247.747C114.675 249.31 117.057 251.823 116.849 256.406C116.758 259.258 116.849 262.109 116.849 264.818H132.474C132.474 262.214 132.474 259.883 132.474 257.617C132.474 251.107 133.972 249.596 139.935 247.487C145.708 245.416 151.36 243.021 156.862 240.312C161.198 238.203 164.935 238.164 168.307 241.81C170.143 243.802 171.836 245.911 173.438 247.786L185.274 236.419C183.412 234.753 181.667 233.333 180.065 231.745C175.352 227.005 175.248 224.687 178.112 218.828C180.707 213.579 182.973 208.174 184.896 202.643C187.083 196.302 188.542 194.961 195.313 194.935H202.279V179.31C199.128 179.31 196.367 179.31 193.607 179.31C189.232 179.427 186.797 177.122 185.274 173.229C182.748 166.771 180.1 160.365 177.331 154.01C175.651 150.104 175.833 146.758 178.932 143.789C181.003 141.81 183.19 139.948 184.922 138.385L173.464 126.211Z" fill="black"/>
<path d="M299.635 397.656C296.055 397.656 292.643 397.656 289.219 397.656C283.633 397.552 280.755 394.818 280.703 389.336C280.625 379.267 280.625 369.197 280.703 359.128C280.703 353.854 283.594 351.055 288.828 350.912C292.383 350.82 295.951 350.912 299.245 350.912C299.514 350.587 299.767 350.248 300 349.896C304.232 342.448 305.508 335.833 296.927 329.922C293.125 327.318 293.62 322.643 296.927 319.167C304.141 311.693 311.489 304.345 318.971 297.122C322.591 293.633 326.341 293.841 330.273 297.214C331.608 298.403 332.877 299.663 334.076 300.99C335.286 302.292 336.38 303.711 337.5 305.052L350.742 299.622C350.742 296.042 350.677 292.487 350.742 288.932C350.872 283.724 353.646 280.807 358.906 280.768C369.141 280.673 379.375 280.673 389.609 280.768C394.531 280.768 397.331 283.763 397.422 288.737C397.526 292.305 397.422 295.872 397.422 299.453L398.724 300.247C406.107 304.688 412.474 305.3 418.255 297.135C421.068 293.164 425.651 293.711 429.375 297.318C436.727 304.436 443.963 311.675 451.081 319.037C454.609 322.708 454.57 326.536 451.081 330.313C448.672 332.917 445.872 335.156 443.177 337.565C445.104 342.318 446.784 346.445 448.607 350.912C452.083 350.912 455.638 350.846 459.193 350.912C464.492 351.029 467.422 353.789 467.474 358.971C467.578 369.206 467.578 379.44 467.474 389.675C467.474 394.635 464.518 397.487 459.661 397.643C456.094 397.76 452.526 397.643 448.776 397.643C447.227 401.263 445.599 404.74 444.284 408.333C444.135 408.886 444.105 409.464 444.195 410.03C444.284 410.595 444.492 411.135 444.805 411.615C446.036 413.126 447.39 414.533 448.854 415.82C455.195 422.175 455.247 425.482 449.049 431.706C442.852 437.93 436.458 444.401 430.078 450.638C425.716 454.883 421.263 455.521 417.839 451.029C412.513 444.05 406.979 443.216 400 447.813C399.164 448.238 398.293 448.591 397.396 448.867C397.396 452.461 397.487 456.185 397.396 459.896C397.24 464.831 394.388 467.708 389.427 467.787C379.193 467.891 368.963 467.891 358.737 467.787C353.529 467.787 350.781 464.805 350.664 459.518C350.586 455.964 350.664 452.396 350.664 448.945L337.161 443.346C335.057 446.019 332.819 448.583 330.456 451.029C326.367 454.935 322.474 454.935 318.464 451.029C311.233 444.006 304.115 436.884 297.109 429.662C293.503 425.938 292.878 421.25 296.862 418.555C305.651 412.578 303.828 405.938 299.844 398.542C299.987 398.438 299.922 398.281 299.635 397.656ZM422.786 434.622L434.922 423.49C432.617 421.38 430.56 419.583 428.594 417.656C425.326 414.531 425.273 411.029 427.07 407.018C429.831 400.846 432.383 394.557 434.805 388.242C436.393 384.102 438.984 381.849 443.542 382.044C446.38 382.175 449.232 382.044 451.979 382.044V366.419H444.531C438.177 366.419 436.628 364.922 434.479 358.841C432.392 353.073 429.992 347.422 427.292 341.914C425.195 337.552 425.234 333.802 428.919 330.482C430.924 328.685 433.086 327.044 434.805 325.638L423.021 313.49C421.69 315.345 420.256 317.123 418.724 318.815C414.036 323.529 411.68 323.555 405.794 320.716C400.252 318.092 394.566 315.783 388.763 313.802C384.388 312.266 381.875 309.792 382.057 304.974C382.161 302.135 382.057 299.284 382.057 296.484H366.432C366.432 299.089 366.432 301.523 366.432 303.919C366.432 310.273 364.935 311.836 358.88 313.997C353.111 316.082 347.46 318.482 341.953 321.185C337.604 323.281 333.867 323.242 330.534 319.57C328.711 317.578 327.07 315.443 325.664 313.737L313.672 325C315.885 327.057 317.93 328.906 319.896 330.781C323.138 333.906 323.268 337.409 321.471 341.419C318.711 347.609 316.107 353.867 313.659 360.195C312.083 364.323 309.518 366.615 304.948 366.432C302.109 366.328 299.258 366.432 296.458 366.432V382.057H303.88C310.247 382.057 311.836 383.594 313.971 389.596C316.048 395.369 318.448 401.02 321.159 406.523C323.255 410.872 323.216 414.622 319.557 417.969C317.578 419.779 315.43 421.432 313.737 422.839L325 434.909C327.07 432.63 328.906 430.573 330.781 428.594C333.906 425.326 337.409 425.247 341.419 427.044C347.591 429.805 353.867 432.383 360.169 434.857C364.284 436.445 366.602 438.997 366.406 443.581C366.289 446.419 366.406 449.258 366.406 452.005H382.031C382.031 448.867 382.031 445.977 382.031 443.099C381.94 438.698 384.336 436.354 388.216 434.844C394.531 432.409 400.82 429.857 406.992 427.096C411.003 425.287 414.531 425.339 417.63 428.62C419.531 430.599 421.224 432.774 422.786 434.622V434.622Z" fill="black"/>
<path d="M397.917 31.5104C402.023 31.5104 405.352 34.8391 405.352 38.9453V38.9453C405.352 43.0515 402.023 46.3802 397.917 46.3802H397.657C393.55 46.3802 390.222 43.0515 390.222 38.9453V38.9453C390.222 34.8391 393.55 31.5104 397.657 31.5104H397.917Z" fill="black"/>
<path d="M421.433 38.8412C421.433 34.7206 424.773 31.3802 428.894 31.3802V31.3802C433.014 31.3802 436.354 34.7206 436.354 38.8412V39.0756C436.354 43.1961 433.014 46.5365 428.894 46.5365V46.5365C424.773 46.5365 421.433 43.1961 421.433 39.0756V38.8412Z" fill="black"/>
<path d="M452.591 38.9063C452.591 34.7713 455.949 31.4193 460.084 31.4193V31.4193C464.219 31.4193 467.578 34.7713 467.578 38.9063V38.9063C467.578 43.0412 464.219 46.3933 460.084 46.3933V46.3933C455.949 46.3933 452.591 43.0412 452.591 38.9063V38.9063Z" fill="black"/>
<path d="M31.4062 46.4323V31.4453H163.503V46.4323H31.4062Z" fill="black"/>
<path d="M194.714 39.043C194.706 43.1872 191.345 46.5885 187.2 46.5885V46.5885C183.051 46.5885 179.688 43.1793 179.688 39.0299V39.0299C179.688 34.8806 183.051 31.4713 187.201 31.4713V31.4713C191.355 31.4713 194.721 34.8886 194.714 39.043V39.043Z" fill="black"/>
<path d="M383.867 154.115L395.208 142.839C396.082 143.465 396.921 144.139 397.721 144.857C409.562 156.654 421.38 168.464 433.177 180.286C437.383 184.505 438.19 188.698 434.701 192.24C421.68 205.391 408.529 218.281 395.234 231.484C391.81 227.773 388.424 224.102 384.818 220.273L417.591 187.721L383.867 154.115Z" fill="black"/>
<path d="M317.552 153.867L284.154 187.083L317.565 220.378L305.989 231.471C301.055 226.523 295.95 221.367 290.82 216.224C283.255 208.646 275.638 201.12 268.138 193.49C263.958 189.258 263.789 185.182 267.786 181.133C280.104 168.672 292.526 156.393 304.948 143.971C305.352 143.611 305.788 143.289 306.25 143.008L317.552 153.867Z" fill="black"/>
<path d="M334.44 229.935L320.547 222.37C336.172 193.789 351.654 165.339 367.422 136.432L381.328 144.01C365.638 172.734 350.156 201.107 334.44 229.935Z" fill="black"/>
<path d="M233.698 351.237V366.198H62.6304V351.237H233.698Z" fill="black"/>
<path d="M233.542 397.474H62.6694V382.474H233.542V397.474Z" fill="black"/>
<path d="M233.672 413.581V428.607H62.7603V413.581H233.672Z" fill="black"/>
<path d="M93.8804 319.935H233.516V334.948H93.8804V319.935Z" fill="black"/>
<path d="M77.6821 327.533C77.6821 331.653 74.3418 335.039 70.2212 335.039V335.039C66.1006 335.039 62.7603 331.653 62.7603 327.533V327.533C62.7603 323.412 66.1006 320.026 70.2212 320.026V320.026C74.3418 320.026 77.6821 323.412 77.6821 327.533V327.533Z" fill="black"/>
<path d="M125 148.151C132.717 148.193 140.248 150.524 146.639 154.848C153.03 159.173 157.994 165.298 160.901 172.446C163.809 179.594 164.53 187.445 162.972 195.003C161.415 202.561 157.649 209.487 152.152 214.903C146.656 220.32 139.675 223.983 132.095 225.429C124.515 226.875 116.676 226.039 109.571 223.026C102.467 220.013 96.4158 214.96 92.1854 208.506C87.955 202.052 85.7353 194.487 85.8074 186.771C85.819 181.654 86.8449 176.591 88.8258 171.873C90.8066 167.155 93.7031 162.877 97.3477 159.285C100.992 155.694 105.313 152.861 110.059 150.95C114.806 149.039 119.884 148.087 125 148.151V148.151ZM124.753 163.776C111.901 163.919 101.12 174.909 101.432 187.526C101.631 193.637 104.217 199.426 108.635 203.651C113.054 207.876 118.953 210.201 125.066 210.126C131.179 210.051 137.019 207.582 141.333 203.25C145.647 198.918 148.09 193.067 148.138 186.953C148.086 174.479 137.149 163.633 124.727 163.776H124.753Z" fill="black"/>
<path d="M373.984 413.242C368.867 413.241 363.8 412.224 359.077 410.252C354.355 408.28 350.07 405.391 346.472 401.752C342.873 398.114 340.031 393.798 338.111 389.054C336.192 384.31 335.231 379.232 335.286 374.115C335.286 352.305 352.682 335.208 374.766 335.286C384.998 335.545 394.719 339.819 401.828 347.183C408.937 354.548 412.864 364.413 412.762 374.649C412.659 384.885 408.535 394.669 401.28 401.89C394.024 409.111 384.22 413.188 373.984 413.242V413.242ZM374.466 350.898C369.845 350.862 365.317 352.199 361.456 354.738C357.595 357.277 354.574 360.905 352.776 365.163C350.979 369.42 350.485 374.115 351.358 378.653C352.231 383.191 354.431 387.368 357.679 390.655C360.928 393.942 365.079 396.191 369.606 397.117C374.134 398.043 378.834 397.604 383.112 395.857C387.391 394.109 391.054 391.131 393.638 387.3C396.223 383.469 397.612 378.957 397.63 374.336C397.773 361.901 386.927 350.937 374.466 350.898V350.898Z" fill="black"/>
</svg>
