<svg width="32" height="32" viewBox="0 0 32 32" fill="none" xmlns="http://www.w3.org/2000/svg">
<path d="M29.1562 5.23128L17.1562 0.231278C16.7907 0.0796402 16.3989 0.00158691 16.0031 0.00158691C15.6074 0.00158691 15.2155 0.0796402 14.85 0.231278L2.85 5.23128C1.73125 5.69378 1 6.78753 1 8.00003C1 20.4063 8.15625 28.9813 14.8438 31.7688C15.5813 32.075 16.4125 32.075 17.15 31.7688C22.5062 29.5375 31 21.8313 31 8.00003C31 6.78753 30.2687 5.69378 29.1562 5.23128ZM16.3875 29.925C16.1375 30.025 15.8625 30.025 15.6187 29.925C9.5 27.5 3 19 3 8.00003C3 7.59378 3.24375 7.23128 3.6125 7.07503L15.6125 2.07503C15.8562 1.97503 16.1375 1.97503 16.3813 2.07503L28.3813 7.07503C28.7563 7.23128 29 7.59378 28.9937 8.00003C29 19 22.5 27.5 16.3875 29.925ZM24.9 9.61253C24.6062 9.31878 24.1313 9.31878 23.8375 9.60628L13.625 19.7375L9.3125 15.3938C9.01875 15.1 8.54375 15.1 8.25 15.3875L7.71875 15.9188C7.425 16.2125 7.425 16.6875 7.7125 16.9813L13.0813 22.3938C13.375 22.6875 13.85 22.6875 14.1438 22.4L25.425 11.2125C25.7188 10.9188 25.7188 10.4438 25.4312 10.15L24.9 9.61253Z" fill="#4C74FF"/>
</svg>
