<svg width="32" height="32" viewBox="0 0 32 32" fill="none" xmlns="http://www.w3.org/2000/svg">
<path d="M10.297 14H21.6945C22.7195 14 23.2314 12.7594 22.507 12.0369L16.8126 6.33813C16.7061 6.23107 16.5795 6.1461 16.4401 6.08808C16.3006 6.03005 16.1511 6.00012 16.0001 6C15.849 5.9994 15.6993 6.029 15.5597 6.08706C15.4202 6.14512 15.2937 6.23048 15.1876 6.33813L9.48448 12.0369C8.76011 12.7594 9.27199 14 10.297 14ZM16.0001 8.35437L19.6439 12H12.3495L16.0001 8.35437ZM21.6945 18H10.297C9.27199 18 8.76011 19.2406 9.48448 19.9631L15.1876 25.6619C15.2937 25.7695 15.4202 25.8549 15.5597 25.9129C15.6993 25.971 15.849 26.0006 16.0001 26C16.1511 25.9999 16.3007 25.97 16.4401 25.912C16.5795 25.854 16.7061 25.769 16.8126 25.6619L22.5114 19.9631C23.2314 19.2406 22.7201 18 21.6945 18ZM16.0001 23.6456L12.3495 20H19.6439L16.0001 23.6456ZM21.9301 1.68375C20.0526 0.90324 18.0396 0.500969 16.0064 0.5C9.92511 0.5 4.15574 4.1025 1.68386 10.07C-1.59114 17.9769 2.16324 27.0413 10.0701 30.3162C11.9476 31.0968 13.9606 31.499 15.9939 31.5C22.0751 31.5 27.8445 27.8975 30.3163 21.93C33.5914 14.0231 29.837 4.95875 21.9301 1.68375ZM28.4689 21.165C27.792 22.8034 26.7986 24.2923 25.5457 25.5464C24.2927 26.8006 22.8048 27.7953 21.167 28.4737C19.5291 29.1521 17.7736 29.5008 16.0009 29.5C14.2281 29.4991 12.4729 29.1487 10.8357 28.4688C3.96011 25.6206 0.683863 17.7106 3.53136 10.835C4.20824 9.19655 5.20158 7.70767 6.45453 6.45356C7.70748 5.19945 9.19544 4.20473 10.8333 3.52634C12.4711 2.84794 14.2266 2.49919 15.9994 2.50003C17.7721 2.50087 19.5273 2.8513 21.1645 3.53125C28.0401 6.37937 31.3163 14.2894 28.4689 21.165Z" fill="#4C74FF"/>
</svg>
