<svg width="36" height="32" viewBox="0 0 36 32" fill="none" xmlns="http://www.w3.org/2000/svg">
<g clip-path="url(#clip0_68_63)">
<path d="M29.1756 7.42688C27.2062 5.18375 25.0887 4 23.0531 4C20.4362 4 18.1462 6.04563 17.22 9.21125L17.1806 9.34813C16.0906 13.1444 12.84 16.2444 7.5181 18.5613C3.93748 20.1175 3.98435 22.3612 4.16998 23.2531C4.83873 26.465 9.89247 27.9281 14.305 27.9281C20.4081 27.9281 26.0918 25.4406 29.8987 21.1031C32.9562 17.62 32.625 11.3569 29.1756 7.42688ZM28.3956 19.7838C24.3806 24.3581 18.8525 25.9281 14.305 25.9281C7.71373 25.9281 3.18373 22.6275 8.31685 20.3925C17.4675 16.4081 18.7493 11.105 19.1393 9.7675C19.8125 7.47875 21.3462 6 23.0531 6C24.4756 6 26.1156 6.97625 27.6725 8.75C30.4456 11.9056 30.7837 17.0625 28.3956 19.7838ZM24 11.995C23.6044 11.995 23.2177 12.1123 22.8888 12.3321C22.5599 12.5518 22.3036 12.8642 22.1522 13.2296C22.0008 13.5951 21.9612 13.9972 22.0384 14.3852C22.1156 14.7731 22.306 15.1295 22.5858 15.4092C22.8655 15.6889 23.2218 15.8794 23.6098 15.9566C23.9977 16.0337 24.3999 15.9941 24.7653 15.8428C25.1308 15.6914 25.4431 15.435 25.6629 15.1061C25.8827 14.7772 26 14.3906 26 13.995C26 13.4646 25.7893 12.9559 25.4142 12.5808C25.0391 12.2057 24.5304 11.995 24 11.995ZM32.1825 4.79063C29.245 1.44438 26.0175 0 23.0531 0C18.6418 0 14.8125 3.19812 13.3812 8.08687C10.3125 16.8325 0.0856029 13.27 -2.20147e-05 21.9769C-0.070647 29.2181 7.89497 32 14.9568 32C15.3073 32 15.655 31.9933 16 31.98C21.4862 31.7669 27.7075 29.6612 32.9056 23.7394C37.2987 18.7344 36.975 10.25 32.1825 4.79063ZM31.4031 22.42C26.175 28.375 20.0993 29.8194 15.9218 29.9813C15.6031 29.9938 15.2814 30 14.9568 30C10.1443 30 5.9706 28.6825 3.78435 26.475C2.56623 25.245 1.9831 23.78 1.99998 22C2.02998 18.9019 3.4681 18.1456 6.71873 16.7306C9.74185 15.4113 13.5043 13.7731 15.2681 8.75L15.2856 8.7L15.3006 8.64875C16.4825 4.60938 19.5256 2 23.0531 2C25.6818 2 28.3193 3.42125 30.6781 6.11C34.8256 10.8337 35.15 18.1506 31.4031 22.42Z" fill="#4C74FF"/>
</g>
<defs>
<clipPath id="clip0_68_63">
<rect width="36" height="32" fill="white"/>
</clipPath>
</defs>
</svg>
