<svg width="106" height="142" viewBox="0 0 106 142" fill="none" xmlns="http://www.w3.org/2000/svg">
<path d="M7.4 142V125.2C18.2 114.933 27.7333 105.667 36 97.4C44.4 89 50.9333 81.3333 55.6 74.4C60.2667 67.3333 62.6 60.8 62.6 54.8C62.6 48.5333 60.9333 43.8 57.6 40.6C54.4 37.2667 50.0667 35.6 44.6 35.6C40.0667 35.6 35.9333 36.9333 32.2 39.6C28.6 42.1333 25.2 45.1333 22 48.6L6 32.8C12.2667 26.1333 18.6667 21.1333 25.2 17.8C31.7333 14.3333 39.5333 12.6 48.6 12.6C57 12.6 64.3333 14.2667 70.6 17.6C76.8667 20.9333 81.7333 25.6667 85.2 31.8C88.8 37.8 90.6 44.8667 90.6 53C90.6 60.0667 88.6 67.3333 84.6 74.8C80.7333 82.1333 75.7333 89.5333 69.6 97C63.4667 104.333 56.9333 111.6 50 118.8C53.2 118.4 56.8 118.067 60.8 117.8C64.8 117.4 68.2667 117.2 71.2 117.2H96.8V142H7.4Z" fill="#E4EAFF"/>
<path d="M7.4 142V125.2C18.2 114.933 27.7333 105.667 36 97.4C44.4 89 50.9333 81.3333 55.6 74.4C60.2667 67.3333 62.6 60.8 62.6 54.8C62.6 48.5333 60.9333 43.8 57.6 40.6C54.4 37.2667 50.0667 35.6 44.6 35.6C40.0667 35.6 35.9333 36.9333 32.2 39.6C28.6 42.1333 25.2 45.1333 22 48.6L6 32.8C12.2667 26.1333 18.6667 21.1333 25.2 17.8C31.7333 14.3333 39.5333 12.6 48.6 12.6C57 12.6 64.3333 14.2667 70.6 17.6C76.8667 20.9333 81.7333 25.6667 85.2 31.8C88.8 37.8 90.6 44.8667 90.6 53C90.6 60.0667 88.6 67.3333 84.6 74.8C80.7333 82.1333 75.7333 89.5333 69.6 97C63.4667 104.333 56.9333 111.6 50 118.8C53.2 118.4 56.8 118.067 60.8 117.8C64.8 117.4 68.2667 117.2 71.2 117.2H96.8V142H7.4Z" fill="#E4EAFF"/>
<path d="M7.4 142V125.2C18.2 114.933 27.7333 105.667 36 97.4C44.4 89 50.9333 81.3333 55.6 74.4C60.2667 67.3333 62.6 60.8 62.6 54.8C62.6 48.5333 60.9333 43.8 57.6 40.6C54.4 37.2667 50.0667 35.6 44.6 35.6C40.0667 35.6 35.9333 36.9333 32.2 39.6C28.6 42.1333 25.2 45.1333 22 48.6L6 32.8C12.2667 26.1333 18.6667 21.1333 25.2 17.8C31.7333 14.3333 39.5333 12.6 48.6 12.6C57 12.6 64.3333 14.2667 70.6 17.6C76.8667 20.9333 81.7333 25.6667 85.2 31.8C88.8 37.8 90.6 44.8667 90.6 53C90.6 60.0667 88.6 67.3333 84.6 74.8C80.7333 82.1333 75.7333 89.5333 69.6 97C63.4667 104.333 56.9333 111.6 50 118.8C53.2 118.4 56.8 118.067 60.8 117.8C64.8 117.4 68.2667 117.2 71.2 117.2H96.8V142H7.4Z" fill="#E4EAFF"/>
<g clip-path="url(#clip0_29_323)">
<path d="M56 8.60859C56.1121 8.37608 56.2377 8.15031 56.3762 7.93242C56.8449 7.28085 57.5094 7.03828 58.2828 7.0371H62.7137C62.7488 6.63632 62.7629 6.25195 62.8203 5.87578C62.9726 4.87851 63.6945 4.14023 64.6953 4.01484C65.2196 3.94747 65.7501 3.94511 66.275 4.00781C67.4773 4.15898 68.2402 5.06953 68.2519 6.28124C68.2519 6.51562 68.2519 6.74296 68.2519 7.0371H68.8285C74.3019 7.0371 79.7754 7.0371 85.2488 7.0371C85.4815 7.03377 85.7137 7.05896 85.9402 7.1121C86.1297 7.16311 86.296 7.27765 86.4112 7.43657C86.5264 7.59549 86.5835 7.78915 86.573 7.98515C86.5575 8.18908 86.4711 8.38113 86.3287 8.52798C86.1863 8.67483 85.9971 8.7672 85.7937 8.78906C85.607 8.80293 85.4196 8.80684 85.2324 8.80078H68.2543C68.2812 9.83554 68.3422 10.848 67.4586 11.5816C66.8035 12.1242 66.0289 12.1945 65.2496 12.1172C64.7398 12.0656 64.168 11.9613 63.7672 11.6766C63.3664 11.3918 63.0488 10.8984 62.8789 10.4226C62.709 9.94687 62.7617 9.38437 62.7055 8.80078H58.2875C58.0226 8.80078 57.766 8.81953 57.7648 9.17578C57.7648 10.6535 57.7648 12.1312 57.7648 13.6383H102.145V12.4863C102.145 11.4316 102.145 10.3652 102.145 9.30468C102.145 9.01523 102.077 8.80312 101.744 8.80312C100.235 8.80312 98.7242 8.80312 97.1574 8.80312C97.1644 9.89413 97.1843 10.9723 96.1871 11.6894C95.5191 12.1699 94.7527 12.1582 93.9886 12.1301C93.1683 12.1019 92.4875 11.7891 92.007 11.0836C91.5383 10.3969 91.673 9.61992 91.6379 8.79726C90.8644 8.79726 90.1062 8.80898 89.3492 8.79726C89.1351 8.80436 88.9265 8.72908 88.7662 8.58694C88.606 8.44479 88.5064 8.2466 88.4879 8.0332C88.4604 7.84541 88.4988 7.65389 88.5967 7.49127C88.6945 7.32866 88.8458 7.20501 89.0246 7.1414C89.2308 7.07149 89.4479 7.03895 89.6656 7.04531C90.3043 7.03359 90.9418 7.04531 91.6472 7.04531C91.6472 6.81093 91.6472 6.59648 91.6472 6.38437C91.6531 4.96054 92.5601 4.02187 93.991 3.95976C94.1621 3.95156 94.3343 3.95976 94.5054 3.95976C96.2199 3.95976 97.1304 4.86679 97.1492 6.58007C97.1492 6.71718 97.1609 6.85429 97.1703 7.04882H98.6715C99.6547 7.04882 100.637 7.05468 101.619 7.04882C103.193 7.0371 103.923 8.21132 103.919 9.35742C103.892 20.1637 103.892 30.9703 103.919 41.7773C103.919 43.1097 103.077 44.1703 101.504 44.1668C92.7093 44.1472 83.9144 44.1441 75.1191 44.1574C69.6453 44.1574 64.1715 44.1387 58.6976 44.1715C57.432 44.1785 56.4851 43.8199 55.9953 42.5859V28.6406C56.0751 28.5274 56.1616 28.419 56.2543 28.316C56.3552 28.2133 56.4806 28.138 56.6186 28.0971C56.7566 28.0561 56.9028 28.0509 57.0434 28.082C57.184 28.113 57.3144 28.1793 57.4223 28.2745C57.5303 28.3698 57.6122 28.4909 57.6605 28.6265C57.7291 28.8652 57.7592 29.1132 57.7496 29.3613C57.7543 33.4785 57.7543 37.5945 57.7496 41.7094C57.7496 42.3703 57.773 42.3926 58.4351 42.3926H101.466C102.091 42.3926 102.133 42.3562 102.133 41.7832V15.8625C102.133 15.7394 102.121 15.6176 102.114 15.4652H57.7578V15.9902C57.7578 18.9519 57.7578 21.9141 57.7578 24.8765C57.7578 25.6969 57.3465 26.1574 56.7031 25.991C56.4383 25.923 56.2344 25.6394 56 25.4508V8.60859ZM66.4941 8.08593C66.4941 7.69687 66.4847 7.30664 66.4941 6.91406C66.5258 5.74218 66.4941 5.67656 65.2262 5.70117C65.1957 5.70117 65.164 5.70117 65.1336 5.70117C64.7422 5.72226 64.523 5.92968 64.5195 6.31992C64.5125 7.45742 64.5125 8.59492 64.5195 9.73242C64.5195 10.1004 64.7187 10.3559 65.0808 10.3477C65.5496 10.3359 66.1027 10.5703 66.4508 10.0359C66.5105 9.94335 66.4906 9.79335 66.4918 9.67031C66.4953 9.15117 66.4941 8.62031 66.4941 8.08593ZM93.4133 8.04257C93.4133 8.57226 93.4133 9.09726 93.4133 9.63163C93.4133 10.1918 93.575 10.3535 94.1269 10.3699C94.2828 10.3699 94.4386 10.3699 94.5957 10.3699C95.2144 10.3605 95.3879 10.1836 95.3902 9.5496C95.3902 8.69179 95.3691 7.83398 95.3961 6.97851C95.4383 5.59921 95.1863 5.69999 94.0226 5.70585C94.007 5.70469 93.9914 5.70469 93.9758 5.70585C93.6172 5.74687 93.4074 5.92031 93.4133 6.31054C93.4191 6.89413 93.4133 7.4707 93.4133 8.04726V8.04257Z" fill="#4D74FF"/>
<path d="M74.8297 25.5469C73.9262 25.5469 73.0238 25.5469 72.1203 25.5469C71.4277 25.5469 71.0785 25.2129 71.075 24.5215C71.0656 22.6832 71.0656 20.8453 71.075 19.0078C71.075 18.3539 71.4359 17.9894 72.091 17.9848C73.9449 17.9715 75.7984 17.9715 77.6516 17.9848C78.309 17.9906 78.6371 18.3562 78.6383 19.0254C78.643 20.8629 78.643 22.6988 78.6383 24.5332C78.6383 25.2047 78.3008 25.5363 77.6316 25.5398C76.6988 25.5469 75.7648 25.5469 74.8297 25.5469ZM72.8539 23.7515H76.8441V19.7719H72.8539V23.7515Z" fill="#4D74FF"/>
<path d="M85.0355 25.5469C84.1168 25.5469 83.198 25.5469 82.2793 25.5469C81.6055 25.5469 81.2691 25.2152 81.2668 24.5449C81.2606 22.6918 81.2606 20.8387 81.2668 18.9856C81.2668 18.3539 81.6066 17.9918 82.2465 17.9871C84.116 17.9723 85.9852 17.9723 87.8539 17.9871C88.4785 17.9871 88.8254 18.3656 88.8289 19.0008C88.8398 20.8531 88.8398 22.7063 88.8289 24.5602C88.8289 25.2199 88.4644 25.5422 87.7918 25.5457C86.873 25.5469 85.9543 25.5469 85.0355 25.5469ZM87.0547 19.7719H83.0703V23.7481H87.0547V19.7719Z" fill="#4D74FF"/>
<path d="M64.6531 25.5469C63.7496 25.5469 62.8473 25.5469 61.9437 25.5469C61.2699 25.5469 60.9043 25.2363 60.8973 24.5719C60.8762 22.7031 60.8762 20.8344 60.8973 18.9656C60.9055 18.3293 61.2723 17.9895 61.9086 17.9859C63.7617 17.9734 65.6148 17.9734 67.468 17.9859C68.1172 17.9918 68.4488 18.3375 68.4523 18.9762C68.4602 20.8441 68.4602 22.7129 68.4523 24.5824C68.4523 25.2293 68.1148 25.5422 67.4574 25.5457C66.5223 25.5469 65.5871 25.5469 64.6531 25.5469ZM62.6703 23.7516H66.6641V19.7672H62.6703V23.7516Z" fill="#4D74FF"/>
<path d="M91.4515 21.8027C91.4515 20.8652 91.4445 19.9277 91.4515 18.9996C91.4515 18.3293 91.782 17.9859 92.4547 17.9813C94.2922 17.9672 96.1281 17.9672 97.9625 17.9813C98.6422 17.9813 99.0008 18.3328 99.0066 19.0266C99.0207 20.8492 99.0207 22.6711 99.0066 24.4922C99.0066 25.2199 98.6551 25.5469 97.9379 25.5469C96.116 25.5469 94.2941 25.5469 92.4722 25.5469C91.7691 25.5469 91.4515 25.2305 91.4457 24.5168C91.4445 23.6086 91.4504 22.7063 91.4515 21.8027ZM93.2375 23.741H97.2219V19.7777H93.2375V23.741Z" fill="#4D74FF"/>
<path d="M78.6418 32.6039C78.6418 33.5074 78.6418 34.4109 78.6418 35.3144C78.6418 36.0023 78.3148 36.3621 77.6211 36.3691C75.7836 36.3855 73.9476 36.3855 72.1133 36.3691C71.4277 36.3621 71.0867 35.9965 71.0832 35.3144C71.0754 33.4926 71.0754 31.6707 71.0832 29.8488C71.0832 29.1457 71.4195 28.8164 72.1156 28.8141C73.9531 28.807 75.7891 28.807 77.6234 28.8141C78.3266 28.8141 78.6394 29.1387 78.643 29.8512C78.6453 30.7664 78.6418 31.6851 78.6418 32.6039ZM72.875 30.5859V34.5832H76.8348V30.5859H72.875Z" fill="#4D74FF"/>
<path d="M81.2656 32.5582C81.2656 31.6547 81.2656 30.7512 81.2656 29.8488C81.2656 29.1351 81.5785 28.8129 82.284 28.8105C84.1215 28.8035 85.9594 28.8035 87.7976 28.8105C88.4937 28.8105 88.8266 29.1434 88.8301 29.8441C88.8379 31.6668 88.8379 33.4891 88.8301 35.3109C88.8301 35.9965 88.4867 36.3656 87.8 36.3656C85.9625 36.382 84.1265 36.382 82.2922 36.3656C81.5984 36.3586 81.2738 36 81.2703 35.3109C81.2609 34.3957 81.2656 33.4769 81.2656 32.5582ZM83.0469 34.5773H87.0312V30.6035H83.0469V34.5773Z" fill="#4D74FF"/>
<path d="M68.4523 32.5781C68.4523 33.4969 68.4523 34.4156 68.4523 35.3344C68.4523 36.0082 68.1406 36.3574 67.4644 36.3644C65.6105 36.3847 63.7574 36.3847 61.9051 36.3644C61.2418 36.3574 60.9019 36.0012 60.8961 35.3308C60.8812 33.4933 60.8812 31.6574 60.8961 29.823C60.9031 29.1199 61.2476 28.8129 61.9508 28.8105C63.7734 28.8043 65.5957 28.8043 67.4176 28.8105C68.157 28.8105 68.4488 29.1176 68.4535 29.8652C68.4558 30.7734 68.4523 31.6769 68.4523 32.5781ZM62.6879 30.5859V34.582H66.6512V30.5859H62.6879Z" fill="#4D74FF"/>
<path d="M91.4504 32.6098C91.4504 31.6723 91.4445 30.7406 91.4504 29.8066C91.4574 29.1234 91.768 28.8129 92.457 28.8105C94.2945 28.8035 96.1324 28.8035 97.9707 28.8105C98.6656 28.8105 99.0043 29.1328 99.0102 29.8394C99.0242 31.6621 99.0242 33.4844 99.0102 35.3062C99.0102 36.0199 98.6586 36.3668 97.9367 36.3715C96.1297 36.3848 94.323 36.3848 92.5168 36.3715C91.7621 36.3715 91.4527 36.034 91.448 35.2734C91.4469 34.3852 91.4504 33.498 91.4504 32.6098ZM93.2375 34.5703H97.2219V30.607H93.2375V34.5703Z" fill="#4D74FF"/>
</g>
<defs>
<clipPath id="clip0_29_323">
<rect width="48" height="48" fill="white" transform="translate(56)"/>
</clipPath>
</defs>
</svg>
