<svg width="106" height="145" viewBox="0 0 106 145" fill="none" xmlns="http://www.w3.org/2000/svg">
<path d="M48.6 144.4C38.3333 144.4 29.5333 142.733 22.2 139.4C15 136.067 9.06667 131.733 4.4 126.4L18 107.8C21.8667 111.533 26.1333 114.6 30.8 117C35.4667 119.4 40.4667 120.6 45.8 120.6C52.0667 120.6 57.0667 119.333 60.8 116.8C64.5333 114.133 66.4 110.4 66.4 105.6C66.4 101.867 65.4667 98.6667 63.6 96C61.7333 93.2 58.3333 91.0667 53.4 89.6C48.4667 88.1333 41.4 87.4 32.2 87.4V66.6C43.6667 66.6 51.5333 65.0667 55.8 62C60.0667 58.8 62.2 54.6667 62.2 49.6C62.2 45.2 60.8667 41.8 58.2 39.4C55.5333 36.8667 51.6667 35.6 46.6 35.6C42.0667 35.6 37.9333 36.6 34.2 38.6C30.6 40.6 26.8 43.3333 22.8 46.8L8 28.8C13.8667 23.7333 20.0667 19.8 26.6 17C33.1333 14.0667 40.2667 12.6 48 12.6C61.0667 12.6 71.6 15.6667 79.6 21.8C87.7333 27.8 91.8 36.3333 91.8 47.4C91.8 53.9333 89.9333 59.5333 86.2 64.2C82.6 68.8667 77.4 72.6667 70.6 75.6V76.4C77.9333 78.5333 83.9333 82.2 88.6 87.4C93.4 92.4667 95.8 99.1333 95.8 107.4C95.8 115.267 93.6 122 89.2 127.6C84.9333 133.067 79.2 137.267 72 140.2C64.9333 143 57.1333 144.4 48.6 144.4Z" fill="#E4EAFF"/>
<path d="M48.6 144.4C38.3333 144.4 29.5333 142.733 22.2 139.4C15 136.067 9.06667 131.733 4.4 126.4L18 107.8C21.8667 111.533 26.1333 114.6 30.8 117C35.4667 119.4 40.4667 120.6 45.8 120.6C52.0667 120.6 57.0667 119.333 60.8 116.8C64.5333 114.133 66.4 110.4 66.4 105.6C66.4 101.867 65.4667 98.6667 63.6 96C61.7333 93.2 58.3333 91.0667 53.4 89.6C48.4667 88.1333 41.4 87.4 32.2 87.4V66.6C43.6667 66.6 51.5333 65.0667 55.8 62C60.0667 58.8 62.2 54.6667 62.2 49.6C62.2 45.2 60.8667 41.8 58.2 39.4C55.5333 36.8667 51.6667 35.6 46.6 35.6C42.0667 35.6 37.9333 36.6 34.2 38.6C30.6 40.6 26.8 43.3333 22.8 46.8L8 28.8C13.8667 23.7333 20.0667 19.8 26.6 17C33.1333 14.0667 40.2667 12.6 48 12.6C61.0667 12.6 71.6 15.6667 79.6 21.8C87.7333 27.8 91.8 36.3333 91.8 47.4C91.8 53.9333 89.9333 59.5333 86.2 64.2C82.6 68.8667 77.4 72.6667 70.6 75.6V76.4C77.9333 78.5333 83.9333 82.2 88.6 87.4C93.4 92.4667 95.8 99.1333 95.8 107.4C95.8 115.267 93.6 122 89.2 127.6C84.9333 133.067 79.2 137.267 72 140.2C64.9333 143 57.1333 144.4 48.6 144.4Z" fill="#E4EAFF"/>
<path d="M48.6 144.4C38.3333 144.4 29.5333 142.733 22.2 139.4C15 136.067 9.06667 131.733 4.4 126.4L18 107.8C21.8667 111.533 26.1333 114.6 30.8 117C35.4667 119.4 40.4667 120.6 45.8 120.6C52.0667 120.6 57.0667 119.333 60.8 116.8C64.5333 114.133 66.4 110.4 66.4 105.6C66.4 101.867 65.4667 98.6667 63.6 96C61.7333 93.2 58.3333 91.0667 53.4 89.6C48.4667 88.1333 41.4 87.4 32.2 87.4V66.6C43.6667 66.6 51.5333 65.0667 55.8 62C60.0667 58.8 62.2 54.6667 62.2 49.6C62.2 45.2 60.8667 41.8 58.2 39.4C55.5333 36.8667 51.6667 35.6 46.6 35.6C42.0667 35.6 37.9333 36.6 34.2 38.6C30.6 40.6 26.8 43.3333 22.8 46.8L8 28.8C13.8667 23.7333 20.0667 19.8 26.6 17C33.1333 14.0667 40.2667 12.6 48 12.6C61.0667 12.6 71.6 15.6667 79.6 21.8C87.7333 27.8 91.8 36.3333 91.8 47.4C91.8 53.9333 89.9333 59.5333 86.2 64.2C82.6 68.8667 77.4 72.6667 70.6 75.6V76.4C77.9333 78.5333 83.9333 82.2 88.6 87.4C93.4 92.4667 95.8 99.1333 95.8 107.4C95.8 115.267 93.6 122 89.2 127.6C84.9333 133.067 79.2 137.267 72 140.2C64.9333 143 57.1333 144.4 48.6 144.4Z" fill="#E4EAFF"/>
<path d="M98.9621 48C98.4113 47.5852 97.8055 47.2266 97.3215 46.7461C93.9231 43.3875 90.5692 39.9973 87.1813 36.634C86.4277 35.8863 86.082 35.0719 86.4254 34.0254C86.4374 33.9697 86.4367 33.912 86.4233 33.8566C86.4099 33.8012 86.3842 33.7495 86.3481 33.7055C85.7317 33.068 85.1012 32.4422 84.5258 31.8633C83.3539 32.5313 82.2512 33.2484 81.077 33.8016C77.9727 35.2664 74.7043 35.7434 71.2918 35.2898C67.352 34.7648 63.9746 33.0973 61.1563 30.3246C58.4867 27.6926 56.832 24.5004 56.1887 20.7949C56.1559 20.6109 56.1125 20.4281 56.0961 20.243C56.0551 19.7742 56.2906 19.4449 56.6926 19.3805C57.0582 19.3219 57.3899 19.5727 57.4871 20.0063C57.6488 20.7188 57.7578 21.4453 57.9582 22.1484C59.0738 26.1328 61.3988 29.2289 64.8582 31.4695C67.5743 33.2542 70.7794 34.1472 74.027 34.0242C78.6559 33.8766 82.5758 32.0988 85.7106 28.6699C87.8687 26.3277 89.2651 23.3855 89.7149 20.2324C89.7315 20.1403 89.7546 20.0495 89.784 19.9606C89.9012 19.5609 90.2258 19.343 90.5844 19.4109C90.984 19.4871 91.2301 19.8516 91.1633 20.2863C90.7215 23.1656 89.6891 25.8059 87.9606 28.1625C87.8692 28.2879 87.7824 28.4156 87.6617 28.5891C88.3086 29.2359 88.9508 29.8887 89.6082 30.5203C89.675 30.5848 89.8672 30.559 89.9856 30.5203C90.8621 30.2602 91.6262 30.4606 92.2625 31.0945C95.9086 34.7297 99.5485 38.3703 103.182 42.0164C104.139 42.9797 104.107 44.243 103.161 45.2262C102.488 45.9223 101.814 46.6184 101.103 47.2711C100.782 47.5664 100.365 47.7586 99.9922 47.9965L98.9621 48ZM90.7051 31.7578C90.4473 31.9148 90.2106 32.0086 90.0395 32.1715C89.3645 32.8184 88.707 33.484 88.0473 34.1496C87.5785 34.6301 87.5715 34.9957 88.0473 35.4773C91.6285 39.0625 95.2117 42.6445 98.7969 46.2234C99.2879 46.7145 99.6524 46.7051 100.156 46.2059C100.798 45.5691 101.438 44.9297 102.073 44.2875C102.57 43.7824 102.571 43.4297 102.073 42.9258C101.449 42.293 100.817 41.6684 100.189 41.0402C97.2672 38.1199 94.3442 35.2008 91.4199 32.2828C91.2301 32.0859 90.9676 31.9477 90.7051 31.7578ZM86.7383 29.7949L85.6109 30.8566L87.4684 32.6824L88.543 31.5938L86.7383 29.7949Z" fill="#4D74FF"/>
<path d="M73.6426 32.4176C65.4922 32.3731 59.0656 25.8985 58.9918 17.9121C58.9658 15.9751 59.3259 14.0524 60.0513 12.2561C60.7766 10.4599 61.8525 8.82616 63.2162 7.45034C64.5799 6.07452 66.2041 4.9842 67.9938 4.24303C69.7836 3.50186 71.7031 3.12471 73.6402 3.13361C81.8105 3.14533 88.2242 9.63048 88.2805 17.7434C88.3332 25.807 81.7672 32.366 73.6426 32.4176ZM73.6332 4.55744C70.126 4.55401 66.761 5.94341 64.2778 8.42019C61.7946 10.897 60.3966 14.2584 60.391 17.7656C60.391 25.0582 66.3184 30.9774 73.625 30.982C75.3705 30.9989 77.1021 30.6698 78.7197 30.0136C80.3373 29.3574 81.8088 28.3872 83.0492 27.159C84.2897 25.9309 85.2745 24.4691 85.9467 22.8581C86.619 21.2471 86.9653 19.5189 86.9658 17.7733C86.9663 16.0277 86.6208 14.2993 85.9494 12.6879C85.2781 11.0766 84.294 9.61429 83.0542 8.38545C81.8144 7.15661 80.3434 6.18562 78.7262 5.52858C77.109 4.87154 75.3776 4.54147 73.632 4.55744H73.6332Z" fill="#4D74FF"/>
<path d="M91.1937 15.6222C91.1937 16.0828 90.9394 16.398 90.5586 16.432C90.207 16.4637 89.8554 16.1847 89.7969 15.7558C89.5508 14.0531 89.1195 12.4031 88.373 10.8492C86.7324 7.42968 84.2121 4.8703 80.8121 3.17108C78.632 2.07712 76.2271 1.50578 73.7879 1.50234C70.3344 1.4871 67.1504 2.43983 64.3109 4.43202C61.3086 6.55194 59.2121 9.34803 58.1164 12.859C57.8351 13.7601 57.6851 14.7023 57.493 15.6293C57.4144 16.0066 57.2902 16.3219 56.8672 16.4015C56.3914 16.4918 55.9906 16.1133 56.0797 15.5754C56.2414 14.5945 56.3879 13.6008 56.6797 12.6562C58.1316 7.96874 61.0473 4.43554 65.3668 2.12812C68.613 0.368097 72.3439 -0.28758 75.9957 0.260149C81.5914 1.05585 85.8394 3.92812 88.8254 8.68124C90.1144 10.7355 90.8433 13.0172 91.1808 15.4137C91.1914 15.4898 91.1902 15.5695 91.1937 15.6222Z" fill="#4D74FF"/>
<path d="M65.7699 17.4867C65.5121 17.7211 65.3527 17.857 65.1969 18C64.3473 18.7817 63.3301 18.8098 62.6188 18.0703C61.9074 17.3309 61.9965 16.2609 62.8379 15.4688C64.6402 13.7649 66.4465 12.066 68.2566 10.3723C69.677 9.03556 71.0992 7.70001 72.5234 6.36564C73.4996 5.44689 74.3727 5.43986 75.3477 6.35509L85.0742 15.4793C85.5945 15.968 85.8863 16.534 85.6953 17.2758C85.5184 17.959 85.0777 18.3762 84.4062 18.5543C83.8145 18.7113 83.2988 18.5274 82.8465 18.1442C82.6238 17.9555 82.4164 17.7492 82.1434 17.4926C82.1328 17.727 82.1199 17.8899 82.1199 18.0527C82.1199 20.6246 82.1199 23.1973 82.1199 25.7707C82.1199 26.7738 81.643 27.2684 80.6422 27.2695C76.1813 27.2742 71.7207 27.2742 67.2605 27.2695C66.2551 27.2695 65.7863 26.7867 65.784 25.7672C65.7793 23.2406 65.7793 20.7145 65.784 18.1887L65.7699 17.4867ZM70.9813 25.8152V25.2563C70.9813 22.7766 70.9813 20.2973 70.9813 17.8184C70.9813 16.8563 71.3762 16.4672 72.3488 16.466C73.4246 16.466 74.5008 16.466 75.5773 16.466C76.4961 16.466 76.8746 16.8504 76.8758 17.7762C76.8758 20.2879 76.8758 22.7984 76.8758 25.3078V25.7918H80.668C80.675 25.6746 80.6844 25.5996 80.6844 25.5234C80.6844 22.4977 80.6914 19.4731 80.6738 16.4473C80.6532 16.2243 80.553 16.0163 80.3914 15.8613C79.4844 14.9813 78.5574 14.1235 77.6363 13.2598L73.9566 9.81212C73.9092 9.84163 73.8634 9.87371 73.8195 9.90822C71.6926 11.9004 69.5633 13.8926 67.4504 15.9059C67.3039 16.0746 67.2231 16.2906 67.223 16.5141C67.209 19.4613 67.2137 22.4086 67.2148 25.3559C67.2148 25.5047 67.2301 25.6547 67.2383 25.8152H70.9813ZM75.4344 25.8152V17.9215H72.4426V25.8129L75.4344 25.8152ZM84.4355 16.9488C84.2223 16.7004 84.1156 16.5504 83.9844 16.4274C80.7812 13.4149 77.5781 10.402 74.375 7.38869C74.0387 7.06994 73.823 7.08048 73.4891 7.39689C70.2867 10.4258 67.0742 13.4469 63.8516 16.4602C63.8176 16.4918 63.7613 16.5188 63.7531 16.5563C63.7168 16.7297 63.6934 16.9078 63.6664 17.0801C63.8443 17.0692 64.0203 17.0385 64.1914 16.9887C64.3086 16.9395 64.3988 16.8047 64.5008 16.7086C67.375 14.007 70.25 11.3067 73.1258 8.60744C73.8523 7.92541 74.041 7.93361 74.7664 8.60744C77.6852 11.352 80.6062 14.0949 83.5297 16.8363C83.6469 16.943 83.7641 17.0977 83.8906 17.1164C84.0172 17.1352 84.1918 17.0309 84.4414 16.9465L84.4355 16.9488Z" fill="#4D74FF"/>
</svg>
