<svg width="106" height="142" viewBox="0 0 106 142" fill="none" xmlns="http://www.w3.org/2000/svg">
<path d="M14 142V118.2H41.6V44.8H17.8V26.6C24.7333 25.2667 30.6 23.6667 35.4 21.8C40.2 19.9333 44.8667 17.6667 49.4 15H71V118.2H94.8V142H14Z" fill="#F5ECFF"/>
<path d="M14 142V118.2H41.6V44.8H17.8V26.6C24.7333 25.2667 30.6 23.6667 35.4 21.8C40.2 19.9333 44.8667 17.6667 49.4 15H71V118.2H94.8V142H14Z" fill="#F5ECFF"/>
<path d="M14 142V118.2H41.6V44.8H17.8V26.6C24.7333 25.2667 30.6 23.6667 35.4 21.8C40.2 19.9333 44.8667 17.6667 49.4 15H71V118.2H94.8V142H14Z" fill="#F5ECFF"/>
<g clip-path="url(#clip0_29_322)">
<path d="M104 34.2457C103.87 34.4918 103.749 34.7426 103.607 34.9817C102.961 36.0703 102.362 36.2707 101.011 35.8477V36.3551C101.011 38.7254 101.011 41.0957 101.011 43.466C101.011 44.4609 100.556 44.9086 99.5551 44.9098H86.5051C85.4504 44.9098 85.0109 44.4621 85.0109 43.3957C85.0109 41.0566 85.0109 38.7176 85.0109 36.3785V35.9098C84.6055 35.9719 84.2199 36.1113 83.8543 36.0727C82.8559 35.9684 82.4305 35.1867 82.1223 34.3734C81.8445 33.6375 82.1352 33.0082 82.6953 32.4879C83.3586 31.8727 84.0008 31.2352 84.6781 30.6363C84.7964 30.5392 84.8891 30.4147 84.9481 30.2735C85.0071 30.1324 85.0307 29.9789 85.0168 29.8266C84.9969 28.8891 85.0098 27.9516 85.0098 27.0199C85.0098 25.6723 85.4281 25.2 86.8027 25.0395L86.532 24.5379C85.4211 24.7324 84.3641 24.9809 83.2918 25.0934C81.5738 25.2738 79.9121 24.9563 78.323 24.2871C78.023 24.1606 77.8414 24.1875 77.6059 24.4254C75.2234 26.8289 72.8176 29.2078 70.4434 31.6195C69.9927 32.0959 69.386 32.3945 68.7336 32.4609C68.2566 32.516 67.7855 32.6391 67.3074 32.6953C67.0051 32.7293 66.8914 32.8699 66.8516 33.1559C66.7742 33.7102 66.6699 34.2609 66.5715 34.8117C66.4426 35.5324 66.1168 35.8793 65.4066 36.0211C64.8277 36.1383 64.2441 36.2391 63.6605 36.3258C63.5462 36.3293 63.4374 36.3759 63.3561 36.4564C63.2748 36.5368 63.227 36.6451 63.2223 36.7594C63.132 37.3594 63.0172 37.9547 62.9223 38.5535C62.7559 39.6082 61.782 40.5117 60.7227 40.5457C59.6164 40.582 58.509 40.5949 57.4016 40.6008C56.634 40.609 56.0949 40.0781 56.0984 39.3234C56.0984 38.1691 56.1371 37.016 56.1512 35.8617C56.1494 35.6515 56.1907 35.4431 56.2725 35.2494C56.3543 35.0557 56.475 34.8808 56.627 34.7356C57.9664 33.4055 59.2871 32.0578 60.643 30.7512C60.8712 30.5569 61.1637 30.4549 61.4633 30.4652C61.6309 30.4746 61.9121 30.7934 61.9074 30.9668C61.8852 31.2623 61.7628 31.5413 61.5605 31.7578C60.3559 33 59.1266 34.2188 57.8926 35.4328C57.7758 35.5331 57.6828 35.6581 57.6203 35.7987C57.5579 35.9394 57.5276 36.0922 57.5316 36.2461C57.5469 37.2106 57.5316 38.1762 57.5316 39.1395C58.6121 39.1395 59.7148 39.1875 60.8129 39.1031C61.0707 39.082 61.4176 38.6473 61.509 38.3391C61.7129 37.6594 61.7797 36.9328 61.9039 36.2297C62.0281 35.5266 62.423 35.1234 63.1238 34.9992C63.691 34.8984 64.2559 34.7836 64.8266 34.7203C65.1277 34.6875 65.2215 34.5434 65.2625 34.282C65.348 33.7289 65.4465 33.177 65.5438 32.6262C65.6797 31.8551 66.05 31.4836 66.8223 31.3524C67.4352 31.2481 68.0527 31.166 68.6621 31.043C68.8889 31.0081 69.1017 30.9116 69.2773 30.7641C71.693 28.3711 74.0992 25.9699 76.4961 23.5606C76.5265 23.5257 76.5547 23.4889 76.5805 23.4504C75.9758 22.9359 75.3418 22.4602 74.7863 21.9059C74.2309 21.3516 73.7691 20.734 73.2406 20.1094C73.1375 20.2078 73.0145 20.3168 72.8984 20.434C70.2961 23.0356 67.6934 25.6371 65.0902 28.2387C64.9578 28.3711 64.8266 28.5692 64.6707 28.5961C64.4082 28.643 64.0766 28.6606 63.8621 28.5375C63.5715 28.3699 63.5246 28.0207 63.7109 27.7113C63.8233 27.5433 63.9555 27.3895 64.1047 27.2531C66.8156 24.5391 69.5301 21.8285 72.248 19.1215C72.4824 18.8871 72.5539 18.7078 72.4168 18.3692C70.277 13.0688 72.2996 7.31837 77.2906 4.50119C81.1578 2.31212 86.402 2.90392 89.7254 5.85001C91.7586 7.65353 92.9574 9.89181 93.3969 12.5438C93.5886 13.7952 93.5576 15.0707 93.3055 16.3113C93.259 16.5647 93.287 16.826 93.3863 17.0637C94.4738 19.4074 95.1441 21.8449 95.1172 24.4465C95.1364 24.6539 95.2306 24.8472 95.382 24.9902C96.4484 26.0168 97.5336 27.0258 98.6117 28.0371C98.7302 28.1385 98.8378 28.2521 98.9328 28.3758C99.0313 28.4995 99.0809 28.6551 99.0722 28.813C99.0636 28.9709 98.9973 29.1202 98.8859 29.2324C98.7881 29.3573 98.6461 29.44 98.4892 29.4635C98.3323 29.4871 98.1724 29.4497 98.0422 29.359C97.8985 29.2658 97.7653 29.1574 97.6449 29.0356C96.2445 27.7254 94.8383 26.4211 93.452 25.0957C93.1145 24.7711 92.8789 24.7899 92.5566 25.1086C91.8734 25.7859 91.1598 26.4328 90.4227 27.1254L90.9102 27.4266C91.3238 27.082 91.666 26.6859 92.0973 26.4563C93.1637 25.8902 94.4504 26.3637 94.9766 27.4488C95.2257 27.9588 95.2641 28.5463 95.0837 29.0844C94.9032 29.6225 94.5183 30.068 94.0121 30.3246C93.7619 30.4601 93.4871 30.544 93.2039 30.5715C92.9206 30.5989 92.6348 30.5693 92.3632 30.4844C92.0917 30.3995 91.8398 30.2611 91.6227 30.0773C91.4055 29.8934 91.2274 29.6679 91.0988 29.4141C90.9544 29.0924 90.6898 28.8401 90.3617 28.7109C90.0231 28.5668 89.7172 28.343 89.382 28.1449C89.2273 28.2738 89.0832 28.4156 88.9133 28.5281C88.4117 28.8703 87.8398 28.5879 87.8129 27.9809C87.7953 27.6082 87.7988 27.232 87.8129 26.8582C87.8234 26.591 87.7473 26.4703 87.4484 26.4598C86.3996 26.4199 86.4008 26.4082 86.4008 27.4711C86.4008 28.4086 86.382 29.3461 86.409 30.2836C86.4199 30.4926 86.3811 30.7012 86.2958 30.8923C86.2104 31.0834 86.0809 31.2515 85.918 31.3828C85.1539 32.0719 84.4098 32.7891 83.6633 33.4922C83.3656 33.7758 83.5461 34.5609 83.9481 34.6641C84.05 34.691 84.2129 34.6066 84.309 34.527C84.5832 34.2926 84.8422 34.0477 85.1012 33.7992C85.3602 33.5508 85.6227 33.3949 85.9801 33.5649C86.3375 33.7348 86.4043 34.0231 86.4043 34.377C86.3996 37.2301 86.3996 40.084 86.4043 42.9387V43.4766H90.1543C90.1613 43.3231 90.1754 43.159 90.1754 42.9949C90.1754 41.0613 90.1754 39.1277 90.1754 37.1942C90.1754 35.8582 90.7402 35.3016 92.0902 35.2992C92.9328 35.2992 93.7754 35.2922 94.6168 35.2992C95.7617 35.3121 96.3324 35.8852 96.3348 37.0383C96.3395 39.0031 96.3395 40.9684 96.3348 42.934V43.4766H99.616V42.9176V34.5902C99.6094 34.45 99.6121 34.3094 99.6242 34.1695C99.7051 33.5426 100.302 33.2883 100.796 33.6832C101.111 33.9375 101.4 34.2246 101.69 34.5035C101.943 34.7484 102.13 34.7227 102.324 34.4227C102.704 33.8367 102.711 33.8039 102.215 33.334C101.864 33.0012 101.503 32.6801 101.161 32.3402C100.788 31.9734 100.755 31.5797 101.053 31.2703C101.332 30.9785 101.724 30.982 102.091 31.3113C102.577 31.7496 103.067 32.1879 103.514 32.6649C103.727 32.8934 103.845 33.2121 104.007 33.4852L104 34.2457ZM87.125 22.5692C91.666 20.1832 93.4098 14.4399 91.0707 9.77111C88.7316 5.10236 82.9531 3.21681 78.1777 5.63673C73.5629 7.96876 71.5578 13.5703 73.9813 18.4629C76.3191 23.182 81.7754 24.7465 85.8348 23.1317C84.7883 20.3848 84.077 17.591 84.7086 14.6074L84.3195 14.4422C82.6016 13.711 81.609 11.761 82.0473 9.99728C82.7797 7.04767 86.2309 5.9672 88.4926 8.01212C89.6082 9.02228 89.9809 10.3289 89.6152 11.7914C89.2309 13.336 88.209 14.3016 86.668 14.6485C86.2309 14.7469 86.082 14.9027 86.0117 15.3047C85.5641 17.8418 86.2074 20.202 87.1203 22.5692H87.125ZM94.8981 43.5C94.9155 43.4438 94.9281 43.3861 94.9356 43.3277C94.9356 41.2395 94.9356 39.1512 94.9449 37.0629C94.9449 36.7641 94.8207 36.6949 94.5535 36.6984C93.7273 36.7078 92.9012 36.7184 92.075 36.6984C91.6918 36.6879 91.5641 36.8074 91.5676 37.2C91.5852 39.1641 91.5746 41.1281 91.577 43.091C91.577 43.2258 91.5945 43.3606 91.6051 43.5047L94.8981 43.5ZM89.327 26.25C90.1133 25.5141 90.8504 24.8438 91.5594 24.1512C92.1594 23.5652 92.8203 23.2641 93.7063 23.5723C93.5968 21.8858 93.2104 20.2289 92.5625 18.668C91.4902 20.9484 89.8953 22.6383 87.7156 23.8699L89.327 26.25ZM85.243 13.2809C86.2309 12.0809 86.4418 11.9766 87.9266 11.8652C87.9869 11.8528 88.0438 11.8269 88.0928 11.7896C88.1419 11.7523 88.182 11.7045 88.2102 11.6496C88.8676 10.0758 87.3606 8.13986 85.659 8.359C84.3254 8.53126 83.4465 9.43712 83.341 10.7508C83.2508 11.8617 84.0184 12.8906 85.243 13.2809ZM93.7672 28.4262L92.6574 29.0789C93.2762 29.3262 93.6781 29.0813 93.7672 28.4262Z" fill="#8000FF"/>
</g>
<defs>
<clipPath id="clip0_29_322">
<rect width="48" height="48" fill="white" transform="translate(56)"/>
</clipPath>
</defs>
</svg>
