<svg width="49" height="49" viewBox="0 0 49 49" fill="none" xmlns="http://www.w3.org/2000/svg">
<path fill-rule="evenodd" clip-rule="evenodd" d="M32.8677 4.78613C39.9437 4.78613 44.6997 9.33813 44.6997 16.1161V33.4541C44.6997 40.2321 39.9437 44.7861 32.8677 44.7861H16.5317C9.45571 44.7861 4.69971 40.2321 4.69971 33.4541V16.1161C4.69971 9.33813 9.45571 4.78613 16.5317 4.78613H32.8677ZM32.8677 7.78613H16.5317C11.1657 7.78613 7.69971 11.0561 7.69971 16.1161V33.4541C7.69971 38.5141 11.1657 41.7861 16.5317 41.7861H32.8677C38.2337 41.7861 41.6997 38.5141 41.6997 33.4541V16.1161C41.6997 11.0561 38.2337 7.78613 32.8677 7.78613ZM26.4023 16.2281L33.9168 23.7107C33.973 23.7652 34.0249 23.8242 34.0719 23.8869L33.9303 23.7241C34.0012 23.794 34.0642 23.8703 34.1189 23.9517C34.1427 23.9886 34.1659 24.0268 34.1874 24.066C34.2051 24.0966 34.2212 24.1286 34.2361 24.1611C34.2497 24.1923 34.2628 24.2237 34.2749 24.2556C34.2873 24.2867 34.2981 24.3184 34.3078 24.3505C34.3415 24.4637 34.3629 24.5826 34.3694 24.7055C34.3716 24.7327 34.3723 24.7594 34.3723 24.7861L34.3657 24.8641L34.3578 24.9896C34.347 25.0691 34.33 25.1467 34.3072 25.2218C34.2981 25.2538 34.2873 25.2856 34.2754 25.3169C34.2628 25.3486 34.2497 25.3799 34.2355 25.4108C34.2212 25.4437 34.2051 25.4757 34.1879 25.507C34.1659 25.5455 34.1427 25.5836 34.1179 25.6206C34.1041 25.6425 34.0888 25.6641 34.0728 25.6853C34.0291 25.7424 33.9823 25.7963 33.932 25.8466L33.9303 25.8481L26.4023 33.3441C26.1103 33.6361 25.7263 33.7821 25.3443 33.7821C24.9603 33.7821 24.5743 33.6361 24.2823 33.3401C23.6983 32.7521 23.7003 31.8041 24.2863 31.2201L29.2397 26.2861H16.5275C15.6995 26.2861 15.0275 25.6141 15.0275 24.7861C15.0275 23.9581 15.6995 23.2861 16.5275 23.2861H29.2397L24.2863 18.3521C23.7003 17.7681 23.6983 16.8201 24.2823 16.2321C24.8663 15.6441 25.8143 15.6441 26.4023 16.2281Z" fill="black"/>
</svg>
