<svg width="49" height="49" viewBox="0 0 49 49" fill="none" xmlns="http://www.w3.org/2000/svg">
<path fill-rule="evenodd" clip-rule="evenodd" d="M21.0636 40.9787C22.0996 42.1327 23.4296 42.7667 24.8096 42.7667H24.8116C26.1976 42.7667 27.5336 42.1327 28.5716 40.9767C29.1276 40.3627 30.0756 40.3127 30.6896 40.8667C31.3056 41.4207 31.3556 42.3707 30.8016 42.9847C29.1856 44.7787 27.0596 45.7667 24.8116 45.7667H24.8076C22.5656 45.7647 20.4436 44.7767 18.8336 42.9827C18.2796 42.3687 18.3296 41.4187 18.9456 40.8667C19.5616 40.3107 20.5096 40.3607 21.0636 40.9787ZM24.9092 2.76666C33.7992 2.76666 39.7712 9.69066 39.7712 16.1567C39.7712 19.4827 40.6172 20.8927 41.5152 22.3887C42.4032 23.8647 43.4092 25.5407 43.4092 28.7087C42.7112 36.8027 34.2612 37.4627 24.9092 37.4627C15.5572 37.4627 7.10515 36.8027 6.41513 28.8367C6.40915 25.5407 7.41515 23.8647 8.30315 22.3887L8.61664 21.861C9.3885 20.5344 10.0472 19.0914 10.0472 16.1567C10.0472 9.69066 16.0192 2.76666 24.9092 2.76666ZM24.9092 5.76666C17.9192 5.76666 13.0472 11.2427 13.0472 16.1567C13.0472 20.3147 11.8932 22.2367 10.8732 23.9327C10.0552 25.2947 9.40915 26.3707 9.40915 28.7087C9.74315 32.4807 12.2332 34.4627 24.9092 34.4627C37.5152 34.4627 40.0832 32.3927 40.4152 28.5787C40.4092 26.3707 39.7632 25.2947 38.9452 23.9327C37.9252 22.2367 36.7712 20.3147 36.7712 16.1567C36.7712 11.2427 31.8992 5.76666 24.9092 5.76666Z" fill="black"/>
</svg>
