<svg width="49" height="49" viewBox="0 0 49 49" fill="none" xmlns="http://www.w3.org/2000/svg">
<path fill-rule="evenodd" clip-rule="evenodd" d="M24.4051 4.70728C35.1451 4.70728 43.8811 13.4433 43.8811 24.1833C43.8811 29.2504 41.9365 33.8718 38.7544 37.3403L45.0159 43.5887C45.6019 44.1747 45.6039 45.1227 45.0179 45.7087C44.7259 46.0047 44.3399 46.1507 43.9559 46.1507C43.5739 46.1507 43.1899 46.0047 42.8959 45.7127L36.5588 39.3933C33.2253 42.063 28.9985 43.6613 24.4051 43.6613C13.6651 43.6613 4.92711 34.9233 4.92711 24.1833C4.92711 13.4433 13.6651 4.70728 24.4051 4.70728ZM24.4051 7.70728C15.3191 7.70728 7.92711 15.0973 7.92711 24.1833C7.92711 33.2693 15.3191 40.6613 24.4051 40.6613C33.4891 40.6613 40.8811 33.2693 40.8811 24.1833C40.8811 15.0973 33.4891 7.70728 24.4051 7.70728Z" fill="black"/>
</svg>
