<svg width="49" height="49" viewBox="0 0 49 49" fill="none" xmlns="http://www.w3.org/2000/svg">
<path fill-rule="evenodd" clip-rule="evenodd" d="M24.6641 4.14728C26.0961 4.14728 27.4881 4.73528 28.4861 5.75728C29.4821 6.78528 30.0321 8.19528 29.9901 9.62528C29.9941 9.94728 30.1001 10.3193 30.2921 10.6453C30.6101 11.1853 31.1121 11.5653 31.7081 11.7213C32.3041 11.8693 32.9281 11.7893 33.4581 11.4753C36.0181 10.0133 39.2761 10.8893 40.7381 13.4293L41.9841 15.5873C42.0161 15.6453 42.0441 15.7013 42.0681 15.7593C43.3921 18.2613 42.5081 21.4113 40.0481 22.8493C39.6901 23.0553 39.4001 23.3433 39.2001 23.6913C38.8901 24.2293 38.8041 24.8693 38.9601 25.4573C39.1201 26.0573 39.5021 26.5553 40.0401 26.8633C41.2541 27.5613 42.1601 28.7373 42.5221 30.0953C42.8841 31.4513 42.6861 32.9233 41.9801 34.1373L40.6521 36.3493C39.1901 38.8613 35.9321 39.7313 33.3981 38.2673C33.0601 38.0733 32.6701 37.9673 32.2821 37.9573H32.2701C31.6921 37.9573 31.0981 38.2033 30.6661 38.6333C30.2281 39.0713 29.9881 39.6553 29.9921 40.2753C29.9781 43.2133 27.5881 45.5893 24.6641 45.5893H22.1581C19.2201 45.5893 16.8301 43.2013 16.8301 40.2633C16.8261 39.9013 16.7221 39.5253 16.5281 39.1993C16.2141 38.6513 15.7061 38.2593 15.1201 38.1033C14.5381 37.9473 13.9001 38.0333 13.3761 38.3373C12.1201 39.0373 10.6421 39.2073 9.29009 38.8273C7.94009 38.4453 6.7741 37.5173 6.0901 36.2873L4.8401 34.1333C3.3781 31.5973 4.2481 28.3473 6.7801 26.8833C7.4981 26.4693 7.9441 25.6973 7.9441 24.8693C7.9441 24.0413 7.4981 23.2673 6.7801 22.8533C4.2461 21.3813 3.3781 18.1233 4.8381 15.5873L6.1941 13.3613C7.6361 10.8533 10.8961 9.96928 13.4381 11.4293C13.7841 11.6353 14.1601 11.7393 14.5421 11.7433C15.7881 11.7433 16.8301 10.7153 16.8501 9.45128C16.8421 8.05728 17.3921 6.71928 18.3941 5.70928C19.4001 4.70128 20.7361 4.14728 22.1581 4.14728H24.6641ZM24.6641 7.14728H22.1581C21.5381 7.14728 20.9581 7.38928 20.5201 7.82528C20.0841 8.26328 19.8461 8.84528 19.8501 9.46528C19.8081 12.3893 17.4181 14.7433 14.5241 14.7433C13.5961 14.7333 12.7021 14.4833 11.9261 14.0193C10.8361 13.3993 9.4121 13.7813 8.7741 14.8913L7.4201 17.1173C6.8001 18.1933 7.18009 19.6153 8.28409 20.2573C9.92209 21.2053 10.9441 22.9733 10.9441 24.8693C10.9441 26.7653 9.9221 28.5313 8.2801 29.4813C7.1821 30.1173 6.8021 31.5313 7.4381 32.6313L8.7001 34.8073C9.0121 35.3693 9.52209 35.7753 10.1121 35.9413C10.7001 36.1053 11.3481 36.0353 11.8881 35.7353C12.6821 35.2693 13.6061 35.0273 14.5341 35.0273C14.9921 35.0273 15.4501 35.0853 15.8981 35.2053C17.2501 35.5693 18.4241 36.4733 19.1201 37.6873C19.5721 38.4493 19.8221 39.3393 19.8301 40.2473C19.8301 41.5473 20.8741 42.5893 22.1581 42.5893H24.6641C25.9421 42.5893 26.9861 41.5533 26.9921 40.2753C26.9841 38.8633 27.5361 37.5213 28.5461 36.5113C29.5421 35.5153 30.9341 34.9173 32.3261 34.9573C33.2381 34.9793 34.1161 35.2253 34.8901 35.6653C36.0041 36.3033 37.4261 35.9233 38.0701 34.8233L39.3981 32.6093C39.6941 32.0993 39.7801 31.4593 39.6221 30.8693C39.4661 30.2793 39.0741 29.7673 38.5461 29.4653C37.3101 28.7533 36.4281 27.6053 36.0621 26.2293C35.7001 24.8793 35.8981 23.4053 36.6041 22.1913C37.0641 21.3913 37.7381 20.7173 38.5461 20.2533C39.6301 19.6193 40.0101 18.2013 39.3801 17.0973C39.3541 17.0533 39.3301 17.0073 39.3101 16.9593L38.1381 14.9273C37.5001 13.8173 36.0801 13.4353 34.9661 14.0693C33.7621 14.7813 32.3301 14.9853 30.9541 14.6233C29.5801 14.2673 28.4281 13.3973 27.7101 12.1693C27.2501 11.4013 27.0001 10.5073 26.9921 9.59728C27.0101 8.91328 26.7701 8.29928 26.3341 7.84928C25.9001 7.40128 25.2901 7.14728 24.6641 7.14728ZM23.4199 18.0955C27.1539 18.0955 30.1919 21.1355 30.1919 24.8695C30.1919 28.6035 27.1539 31.6395 23.4199 31.6395C19.6859 31.6395 16.6479 28.6035 16.6479 24.8695C16.6479 21.1355 19.6859 18.0955 23.4199 18.0955ZM23.4199 21.0955C21.3399 21.0955 19.6479 22.7895 19.6479 24.8695C19.6479 26.9495 21.3399 28.6395 23.4199 28.6395C25.4999 28.6395 27.1919 26.9495 27.1919 24.8695C27.1919 22.7895 25.4999 21.0955 23.4199 21.0955Z" fill="black"/>
</svg>
