<svg width="49" height="49" viewBox="0 0 49 49" fill="none" xmlns="http://www.w3.org/2000/svg">
<path fill-rule="evenodd" clip-rule="evenodd" d="M20.0686 28.2831C26.5866 28.2831 35.2526 29.0171 35.2526 35.3671C35.2526 42.0561 25.1549 42.4575 20.8235 42.4815L19.2508 42.4816C14.6325 42.4576 4.88464 42.0585 4.88464 35.4071C4.88464 28.7105 14.9824 28.3087 19.3138 28.2846L19.8342 28.2831C19.9153 28.2831 19.9935 28.2831 20.0686 28.2831ZM20.0686 31.2831C14.5106 31.2831 7.88464 31.9971 7.88464 35.4071C7.88464 38.1111 11.9846 39.4831 20.0686 39.4831C28.1526 39.4831 32.2526 38.0971 32.2526 35.3671C32.2526 32.6571 28.1526 31.2831 20.0686 31.2831ZM38.298 27.3489C43.71 28.1589 44.844 30.6649 44.844 32.6229C44.844 34.0809 44.214 36.0549 41.208 37.1929C41.034 37.2589 40.854 37.2909 40.676 37.2909C40.07 37.2909 39.5 36.9209 39.274 36.3229C38.98 35.5489 39.37 34.6809 40.144 34.3889C41.844 33.7449 41.844 32.9589 41.844 32.6229C41.844 31.4889 40.502 30.7129 37.856 30.3189C37.036 30.1949 36.47 29.4309 36.592 28.6129C36.716 27.7929 37.494 27.2429 38.298 27.3489ZM20.0686 4.36908C25.7306 4.36908 30.3387 8.97708 30.3387 14.6391C30.3506 17.3671 29.2926 19.9431 27.3646 21.8831C25.4406 23.8251 22.8706 24.8991 20.1366 24.9091H20.0686C14.4046 24.9091 9.79664 20.3011 9.79664 14.6391C9.79664 8.97708 14.4046 4.36908 20.0686 4.36908ZM34.2438 6.61668C38.1738 7.26068 41.0258 10.6227 41.0258 14.6087C41.0178 18.6187 38.0238 22.0627 34.0598 22.6187C33.9898 22.6287 33.9198 22.6327 33.8498 22.6327C33.1138 22.6327 32.4718 22.0907 32.3658 21.3407C32.2518 20.5207 32.8218 19.7607 33.6418 19.6467C36.1378 19.2967 38.0218 17.1307 38.0258 14.6067C38.0258 12.0987 36.2298 9.98268 33.7598 9.57868C32.9418 9.44268 32.3878 8.67268 32.5218 7.85468C32.6558 7.03668 33.4298 6.48668 34.2438 6.61668ZM20.0686 7.36908C16.0586 7.36908 12.7966 10.6311 12.7966 14.6391C12.7966 18.6471 16.0586 21.9091 20.0686 21.9091H20.1306C22.0586 21.9011 23.8746 21.1431 25.2366 19.7691C26.6006 18.3991 27.3466 16.5771 27.3387 14.6451C27.3387 10.6311 24.0766 7.36908 20.0686 7.36908Z" fill="black"/>
</svg>
